<svg width="736" height="53" viewBox="0 0 736 53" fill="none" xmlns="http://www.w3.org/2000/svg">
<path d="M6.67244 16V4.72H8.83244L14.4644 11.744H14.0164V4.72H16.7364V16H14.5924L8.96044 8.96H9.40844V16H6.67244ZM22.5894 16.176C21.7148 16.176 20.9521 16.0107 20.3014 15.68C19.6508 15.3493 19.1441 14.8747 18.7814 14.256C18.4188 13.6373 18.2374 12.9067 18.2374 12.064C18.2374 11.2107 18.4188 10.48 18.7814 9.872C19.1441 9.25333 19.6508 8.77867 20.3014 8.448C20.9521 8.11733 21.7148 7.952 22.5894 7.952C23.4641 7.952 24.2268 8.11733 24.8774 8.448C25.5281 8.77867 26.0294 9.25333 26.3814 9.872C26.7441 10.48 26.9254 11.2107 26.9254 12.064C26.9254 12.9067 26.7441 13.6373 26.3814 14.256C26.0294 14.8747 25.5281 15.3493 24.8774 15.68C24.2268 16.0107 23.4641 16.176 22.5894 16.176ZM22.5894 14.08C23.0161 14.08 23.3681 13.92 23.6454 13.6C23.9228 13.28 24.0614 12.768 24.0614 12.064C24.0614 11.3493 23.9228 10.8373 23.6454 10.528C23.3681 10.208 23.0161 10.048 22.5894 10.048C22.1521 10.048 21.7948 10.208 21.5174 10.528C21.2401 10.8373 21.1014 11.3493 21.1014 12.064C21.1014 12.768 21.2401 13.28 21.5174 13.6C21.7948 13.92 22.1521 14.08 22.5894 14.08ZM36.8246 16.176C35.9392 16.176 35.1659 16.0107 34.5046 15.68C33.8539 15.3493 33.3472 14.8747 32.9846 14.256C32.6219 13.6267 32.4406 12.8907 32.4406 12.048C32.4406 11.1947 32.6219 10.464 32.9846 9.856C33.3472 9.23733 33.8539 8.768 34.5046 8.448C35.1659 8.11733 35.9392 7.952 36.8246 7.952C37.3472 7.952 37.8699 8.02133 38.3926 8.16C38.9152 8.29867 39.3366 8.50133 39.6566 8.768L38.9046 10.72C38.6592 10.528 38.3712 10.3787 38.0406 10.272C37.7206 10.1547 37.4166 10.096 37.1286 10.096C36.5632 10.096 36.1259 10.2667 35.8166 10.608C35.5072 10.9387 35.3526 11.4187 35.3526 12.048C35.3526 12.6667 35.5072 13.152 35.8166 13.504C36.1259 13.856 36.5632 14.032 37.1286 14.032C37.4166 14.032 37.7206 13.9787 38.0406 13.872C38.3712 13.7547 38.6592 13.6 38.9046 13.408L39.6566 15.36C39.3366 15.6053 38.9152 15.8027 38.3926 15.952C37.8699 16.1013 37.3472 16.176 36.8246 16.176ZM44.3863 16.176C43.5116 16.176 42.749 16.0107 42.0983 15.68C41.4476 15.3493 40.941 14.8747 40.5783 14.256C40.2156 13.6373 40.0343 12.9067 40.0343 12.064C40.0343 11.2107 40.2156 10.48 40.5783 9.872C40.941 9.25333 41.4476 8.77867 42.0983 8.448C42.749 8.11733 43.5116 7.952 44.3863 7.952C45.261 7.952 46.0236 8.11733 46.6743 8.448C47.325 8.77867 47.8263 9.25333 48.1783 9.872C48.541 10.48 48.7223 11.2107 48.7223 12.064C48.7223 12.9067 48.541 13.6373 48.1783 14.256C47.8263 14.8747 47.325 15.3493 46.6743 15.68C46.0236 16.0107 45.261 16.176 44.3863 16.176ZM44.3863 14.08C44.813 14.08 45.165 13.92 45.4423 13.6C45.7196 13.28 45.8583 12.768 45.8583 12.064C45.8583 11.3493 45.7196 10.8373 45.4423 10.528C45.165 10.208 44.813 10.048 44.3863 10.048C43.949 10.048 43.5916 10.208 43.3143 10.528C43.037 10.8373 42.8983 11.3493 42.8983 12.064C42.8983 12.768 43.037 13.28 43.3143 13.6C43.5916 13.92 43.949 14.08 44.3863 14.08ZM50.0273 16V8.128H52.7953V9.504H52.6193C52.8753 9.00267 53.238 8.61867 53.7073 8.352C54.1873 8.08533 54.7313 7.952 55.3393 7.952C55.9686 7.952 56.486 8.07467 56.8913 8.32C57.2966 8.55467 57.6006 8.928 57.8033 9.44C58.006 9.94133 58.1073 10.576 58.1073 11.344V16H55.2593V11.456C55.2593 11.136 55.222 10.88 55.1473 10.688C55.0726 10.4853 54.9606 10.3413 54.8113 10.256C54.6726 10.1707 54.4966 10.128 54.2833 10.128C53.9953 10.128 53.7446 10.192 53.5313 10.32C53.318 10.4373 53.1526 10.608 53.0353 10.832C52.9286 11.056 52.8753 11.3227 52.8753 11.632V16H50.0273ZM62.8664 16.176C62.3864 16.176 61.9224 16.144 61.4744 16.08C61.0371 16.016 60.6371 15.92 60.2744 15.792C59.9118 15.664 59.5864 15.5093 59.2984 15.328L59.9544 13.488C60.2211 13.6373 60.5144 13.7707 60.8344 13.888C61.1651 14.0053 61.5064 14.096 61.8584 14.16C62.2104 14.224 62.5518 14.256 62.8824 14.256C63.2771 14.256 63.5598 14.2027 63.7304 14.096C63.9011 13.9787 63.9864 13.8293 63.9864 13.648C63.9864 13.488 63.9278 13.3653 63.8104 13.28C63.7038 13.1947 63.5491 13.136 63.3464 13.104L61.5704 12.816C60.9091 12.6987 60.3971 12.4587 60.0344 12.096C59.6718 11.7227 59.4904 11.2373 59.4904 10.64C59.4904 10.0853 59.6451 9.61067 59.9544 9.216C60.2744 8.81067 60.7064 8.50133 61.2504 8.288C61.8051 8.064 62.4398 7.952 63.1544 7.952C63.5384 7.952 63.9171 7.984 64.2904 8.048C64.6638 8.10133 65.0211 8.192 65.3624 8.32C65.7038 8.43733 66.0131 8.59733 66.2904 8.8L65.5864 10.608C65.3838 10.4587 65.1438 10.3307 64.8664 10.224C64.5891 10.1173 64.3011 10.032 64.0024 9.968C63.7144 9.89333 63.4478 9.856 63.2024 9.856C62.7651 9.856 62.4558 9.91467 62.2744 10.032C62.0931 10.1493 62.0024 10.2987 62.0024 10.48C62.0024 10.6187 62.0504 10.736 62.1464 10.832C62.2424 10.9173 62.3918 10.976 62.5944 11.008L64.3704 11.312C65.0531 11.4187 65.5758 11.6533 65.9384 12.016C66.3118 12.368 66.4984 12.848 66.4984 13.456C66.4984 14.032 66.3491 14.5227 66.0504 14.928C65.7518 15.3333 65.3304 15.6427 64.7864 15.856C64.2424 16.0693 63.6024 16.176 62.8664 16.176ZM70.6119 16.176C69.9293 16.176 69.3693 16.0533 68.9319 15.808C68.4946 15.552 68.1639 15.1733 67.9399 14.672C67.7266 14.1707 67.6199 13.536 67.6199 12.768V8.128H70.4679V12.848C70.4679 13.104 70.4999 13.3173 70.5639 13.488C70.6386 13.6587 70.7506 13.7867 70.8999 13.872C71.0493 13.9573 71.2359 14 71.4599 14C71.7159 14 71.9399 13.9413 72.1319 13.824C72.3346 13.696 72.4893 13.52 72.5959 13.296C72.7133 13.0613 72.7719 12.7893 72.7719 12.48V8.128H75.6199V16H72.8359V14.56H73.0919C72.8573 15.0827 72.5266 15.4827 72.0999 15.76C71.6839 16.0373 71.1879 16.176 70.6119 16.176ZM77.3093 16V8.128H80.0773V9.504H79.9013C80.0506 9.184 80.248 8.912 80.4933 8.688C80.7386 8.45333 81.0266 8.272 81.3573 8.144C81.6986 8.016 82.072 7.952 82.4773 7.952C83.0533 7.952 83.544 8.09067 83.9493 8.368C84.3653 8.64533 84.664 9.06667 84.8453 9.632H84.6213C84.8666 9.10933 85.2346 8.69867 85.7253 8.4C86.216 8.10133 86.76 7.952 87.3573 7.952C87.976 7.952 88.4826 8.07467 88.8773 8.32C89.272 8.55467 89.5653 8.928 89.7573 9.44C89.96 9.94133 90.0613 10.576 90.0613 11.344V16H87.2133V11.424C87.2133 10.9653 87.144 10.6347 87.0053 10.432C86.8666 10.2293 86.6373 10.128 86.3173 10.128C86.0613 10.128 85.8373 10.192 85.6453 10.32C85.464 10.4373 85.3253 10.6187 85.2293 10.864C85.144 11.0987 85.1013 11.3867 85.1013 11.728V16H82.2533V11.424C82.2533 10.9653 82.184 10.6347 82.0453 10.432C81.9066 10.2293 81.6773 10.128 81.3573 10.128C81.1013 10.128 80.8826 10.192 80.7013 10.32C80.52 10.4373 80.3813 10.6187 80.2853 10.864C80.2 11.0987 80.1573 11.3867 80.1573 11.728V16H77.3093ZM96.0028 16.176C95.0428 16.176 94.2108 16.0107 93.5068 15.68C92.8135 15.3387 92.2801 14.8587 91.9068 14.24C91.5335 13.6213 91.3468 12.8907 91.3468 12.048C91.3468 11.2373 91.5228 10.528 91.8748 9.92C92.2375 9.30133 92.7281 8.82133 93.3468 8.48C93.9761 8.128 94.6908 7.952 95.4908 7.952C96.2908 7.952 96.9788 8.11733 97.5548 8.448C98.1308 8.77867 98.5735 9.25333 98.8828 9.872C99.2028 10.48 99.3628 11.1947 99.3628 12.016V12.64H93.7308V11.296H97.2828L97.0268 11.504C97.0268 10.928 96.9041 10.5013 96.6588 10.224C96.4135 9.936 96.0668 9.792 95.6188 9.792C95.2881 9.792 95.0001 9.872 94.7548 10.032C94.5201 10.1813 94.3388 10.4053 94.2108 10.704C94.0828 11.0027 94.0188 11.376 94.0188 11.824V11.968C94.0188 12.4693 94.0881 12.8747 94.2268 13.184C94.3761 13.4933 94.6055 13.7227 94.9148 13.872C95.2241 14.0107 95.6135 14.08 96.0828 14.08C96.4881 14.08 96.9095 14.0213 97.3468 13.904C97.7948 13.776 98.1895 13.5947 98.5308 13.36L99.2348 15.232C98.8295 15.52 98.3335 15.7493 97.7468 15.92C97.1601 16.0907 96.5788 16.176 96.0028 16.176ZM100.59 16V8.128H103.358V9.504H103.182C103.438 9.00267 103.8 8.61867 104.27 8.352C104.75 8.08533 105.294 7.952 105.902 7.952C106.531 7.952 107.048 8.07467 107.454 8.32C107.859 8.55467 108.163 8.928 108.366 9.44C108.568 9.94133 108.67 10.576 108.67 11.344V16H105.822V11.456C105.822 11.136 105.784 10.88 105.71 10.688C105.635 10.4853 105.523 10.3413 105.374 10.256C105.235 10.1707 105.059 10.128 104.846 10.128C104.558 10.128 104.307 10.192 104.094 10.32C103.88 10.4373 103.715 10.608 103.598 10.832C103.491 11.056 103.438 11.3227 103.438 11.632V16H100.59ZM117.943 16.176C117.271 16.176 116.674 16.0107 116.151 15.68C115.639 15.3493 115.234 14.8747 114.935 14.256C114.647 13.6373 114.503 12.9067 114.503 12.064C114.503 11.2 114.647 10.464 114.935 9.856C115.234 9.248 115.639 8.77867 116.151 8.448C116.674 8.11733 117.271 7.952 117.943 7.952C118.53 7.952 119.058 8.09067 119.527 8.368C119.996 8.64533 120.311 9.00267 120.471 9.44H120.295V4.72H123.143V16H120.359V14.576H120.503C120.354 15.056 120.039 15.4453 119.559 15.744C119.09 16.032 118.551 16.176 117.943 16.176ZM118.855 14.08C119.282 14.08 119.634 13.92 119.911 13.6C120.188 13.28 120.327 12.768 120.327 12.064C120.327 11.3493 120.188 10.8373 119.911 10.528C119.634 10.208 119.282 10.048 118.855 10.048C118.418 10.048 118.06 10.208 117.783 10.528C117.506 10.8373 117.367 11.3493 117.367 12.064C117.367 12.768 117.506 13.28 117.783 13.6C118.06 13.92 118.418 14.08 118.855 14.08ZM127.529 16.176C126.921 16.176 126.382 16.064 125.913 15.84C125.454 15.616 125.092 15.312 124.825 14.928C124.569 14.5333 124.441 14.0853 124.441 13.584C124.441 13.008 124.59 12.5547 124.889 12.224C125.188 11.8933 125.668 11.6587 126.329 11.52C126.99 11.3707 127.87 11.296 128.969 11.296H129.849V12.64H128.969C128.66 12.64 128.388 12.656 128.153 12.688C127.929 12.72 127.742 12.7733 127.593 12.848C127.444 12.912 127.332 12.9973 127.257 13.104C127.182 13.2107 127.145 13.3333 127.145 13.472C127.145 13.7173 127.23 13.92 127.401 14.08C127.582 14.24 127.838 14.32 128.169 14.32C128.436 14.32 128.67 14.2613 128.873 14.144C129.086 14.0267 129.257 13.8667 129.385 13.664C129.513 13.4507 129.577 13.2053 129.577 12.928V11.072C129.577 10.688 129.476 10.416 129.273 10.256C129.081 10.096 128.745 10.016 128.265 10.016C127.86 10.016 127.412 10.08 126.921 10.208C126.43 10.336 125.95 10.5333 125.481 10.8L124.761 8.928C125.038 8.736 125.38 8.56533 125.785 8.416C126.201 8.26667 126.638 8.15467 127.097 8.08C127.566 7.99467 127.998 7.952 128.393 7.952C129.268 7.952 129.988 8.08 130.553 8.336C131.129 8.58133 131.556 8.96533 131.833 9.488C132.121 10 132.265 10.6613 132.265 11.472V16H129.609V14.512H129.705C129.652 14.8533 129.529 15.1467 129.337 15.392C129.145 15.6373 128.894 15.8293 128.585 15.968C128.276 16.1067 127.924 16.176 127.529 16.176ZM138.015 16.176C136.82 16.176 135.935 15.8987 135.359 15.344C134.783 14.7893 134.495 13.952 134.495 12.832V10.224H133.023V8.128H134.495V5.84H137.343V8.128H139.583V10.224H137.343V12.736C137.343 13.1307 137.433 13.424 137.615 13.616C137.807 13.7973 138.105 13.888 138.511 13.888C138.639 13.888 138.777 13.872 138.927 13.84C139.087 13.808 139.263 13.7707 139.455 13.728L139.839 15.776C139.593 15.904 139.305 16 138.975 16.064C138.655 16.1387 138.335 16.176 138.015 16.176ZM144.605 16.176C143.73 16.176 142.968 16.0107 142.317 15.68C141.666 15.3493 141.16 14.8747 140.797 14.256C140.434 13.6373 140.253 12.9067 140.253 12.064C140.253 11.2107 140.434 10.48 140.797 9.872C141.16 9.25333 141.666 8.77867 142.317 8.448C142.968 8.11733 143.73 7.952 144.605 7.952C145.48 7.952 146.242 8.11733 146.893 8.448C147.544 8.77867 148.045 9.25333 148.397 9.872C148.76 10.48 148.941 11.2107 148.941 12.064C148.941 12.9067 148.76 13.6373 148.397 14.256C148.045 14.8747 147.544 15.3493 146.893 15.68C146.242 16.0107 145.48 16.176 144.605 16.176ZM144.605 14.08C145.032 14.08 145.384 13.92 145.661 13.6C145.938 13.28 146.077 12.768 146.077 12.064C146.077 11.3493 145.938 10.8373 145.661 10.528C145.384 10.208 145.032 10.048 144.605 10.048C144.168 10.048 143.81 10.208 143.533 10.528C143.256 10.8373 143.117 11.3493 143.117 12.064C143.117 12.768 143.256 13.28 143.533 13.6C143.81 13.92 144.168 14.08 144.605 14.08ZM153.382 16.176C152.902 16.176 152.438 16.144 151.99 16.08C151.553 16.016 151.153 15.92 150.79 15.792C150.427 15.664 150.102 15.5093 149.814 15.328L150.47 13.488C150.737 13.6373 151.03 13.7707 151.35 13.888C151.681 14.0053 152.022 14.096 152.374 14.16C152.726 14.224 153.067 14.256 153.398 14.256C153.793 14.256 154.075 14.2027 154.246 14.096C154.417 13.9787 154.502 13.8293 154.502 13.648C154.502 13.488 154.443 13.3653 154.326 13.28C154.219 13.1947 154.065 13.136 153.862 13.104L152.086 12.816C151.425 12.6987 150.913 12.4587 150.55 12.096C150.187 11.7227 150.006 11.2373 150.006 10.64C150.006 10.0853 150.161 9.61067 150.47 9.216C150.79 8.81067 151.222 8.50133 151.766 8.288C152.321 8.064 152.955 7.952 153.67 7.952C154.054 7.952 154.433 7.984 154.806 8.048C155.179 8.10133 155.537 8.192 155.878 8.32C156.219 8.43733 156.529 8.59733 156.806 8.8L156.102 10.608C155.899 10.4587 155.659 10.3307 155.382 10.224C155.105 10.1173 154.817 10.032 154.518 9.968C154.23 9.89333 153.963 9.856 153.718 9.856C153.281 9.856 152.971 9.91467 152.79 10.032C152.609 10.1493 152.518 10.2987 152.518 10.48C152.518 10.6187 152.566 10.736 152.662 10.832C152.758 10.9173 152.907 10.976 153.11 11.008L154.886 11.312C155.569 11.4187 156.091 11.6533 156.454 12.016C156.827 12.368 157.014 12.848 157.014 13.456C157.014 14.032 156.865 14.5227 156.566 14.928C156.267 15.3333 155.846 15.6427 155.302 15.856C154.758 16.0693 154.118 16.176 153.382 16.176Z" fill="#ED7A45"/>
<path d="M3.13198 32V24.584H0.131984V23.54H7.36799V24.584H4.36798V32H3.13198ZM9.4693 32.108C8.9973 32.108 8.6013 32.02 8.2813 31.844C7.9693 31.668 7.7333 31.408 7.5733 31.064C7.4213 30.712 7.3453 30.272 7.3453 29.744V26.144H8.5573V29.756C8.5573 30.068 8.5973 30.328 8.6773 30.536C8.7653 30.744 8.8973 30.896 9.0733 30.992C9.2573 31.088 9.4853 31.136 9.7573 31.136C10.0613 31.136 10.3293 31.068 10.5613 30.932C10.7933 30.796 10.9733 30.6 11.1013 30.344C11.2293 30.088 11.2933 29.792 11.2933 29.456V26.144H12.5053V32H11.3293V30.716H11.4853C11.3253 31.164 11.0693 31.508 10.7173 31.748C10.3653 31.988 9.9493 32.108 9.4693 32.108ZM16.6457 32L20.4137 23.54H21.4457L25.2257 32H23.9537L22.9217 29.6L23.4857 29.936H18.3737L18.9257 29.6L17.9057 32H16.6457ZM20.9177 24.92L19.1057 29.216L18.8057 28.928H23.0417L22.7657 29.216L20.9417 24.92H20.9177ZM26.2016 34.16V26.144H27.3896V27.464H27.2576C27.3856 27.032 27.6376 26.688 28.0136 26.432C28.3896 26.168 28.8336 26.036 29.3456 26.036C29.8656 26.036 30.3176 26.16 30.7016 26.408C31.0936 26.656 31.3936 27.004 31.6016 27.452C31.8176 27.9 31.9256 28.44 31.9256 29.072C31.9256 29.688 31.8176 30.228 31.6016 30.692C31.3936 31.148 31.0976 31.5 30.7136 31.748C30.3296 31.988 29.8736 32.108 29.3456 32.108C28.8416 32.108 28.4016 31.98 28.0256 31.724C27.6496 31.468 27.3976 31.128 27.2696 30.704H27.4136V34.16H26.2016ZM29.0456 31.172C29.5496 31.172 29.9496 30.992 30.2456 30.632C30.5496 30.272 30.7016 29.752 30.7016 29.072C30.7016 28.384 30.5496 27.864 30.2456 27.512C29.9496 27.16 29.5496 26.984 29.0456 26.984C28.5496 26.984 28.1496 27.16 27.8456 27.512C27.5416 27.864 27.3896 28.384 27.3896 29.072C27.3896 29.752 27.5416 30.272 27.8456 30.632C28.1496 30.992 28.5496 31.172 29.0456 31.172ZM33.2915 34.16V26.144H34.4795V27.464H34.3475C34.4755 27.032 34.7275 26.688 35.1035 26.432C35.4795 26.168 35.9235 26.036 36.4355 26.036C36.9555 26.036 37.4075 26.16 37.7915 26.408C38.1835 26.656 38.4835 27.004 38.6915 27.452C38.9075 27.9 39.0155 28.44 39.0155 29.072C39.0155 29.688 38.9075 30.228 38.6915 30.692C38.4835 31.148 38.1875 31.5 37.8035 31.748C37.4195 31.988 36.9635 32.108 36.4355 32.108C35.9315 32.108 35.4915 31.98 35.1155 31.724C34.7395 31.468 34.4875 31.128 34.3595 30.704H34.5035V34.16H33.2915ZM36.1355 31.172C36.6395 31.172 37.0395 30.992 37.3355 30.632C37.6395 30.272 37.7915 29.752 37.7915 29.072C37.7915 28.384 37.6395 27.864 37.3355 27.512C37.0395 27.16 36.6395 26.984 36.1355 26.984C35.6395 26.984 35.2395 27.16 34.9355 27.512C34.6315 27.864 34.4795 28.384 34.4795 29.072C34.4795 29.752 34.6315 30.272 34.9355 30.632C35.2395 30.992 35.6395 31.172 36.1355 31.172ZM43.6656 32V23.54H46.6536C47.5816 23.54 48.3696 23.704 49.0176 24.032C49.6656 24.352 50.1576 24.828 50.4936 25.46C50.8376 26.084 51.0096 26.852 51.0096 27.764C51.0096 28.676 50.8376 29.448 50.4936 30.08C50.1576 30.704 49.6656 31.18 49.0176 31.508C48.3696 31.836 47.5816 32 46.6536 32H43.6656ZM44.9136 30.956H46.5816C47.6296 30.956 48.4136 30.692 48.9336 30.164C49.4536 29.628 49.7136 28.828 49.7136 27.764C49.7136 26.7 49.4496 25.904 48.9216 25.376C48.4016 24.848 47.6216 24.584 46.5816 24.584H44.9136V30.956ZM52.4374 24.788V23.528H53.8534V24.788H52.4374ZM52.5454 32V26.144H53.7574V32H52.5454ZM55.5953 32V23.54H58.5833C59.5113 23.54 60.2993 23.704 60.9473 24.032C61.5953 24.352 62.0873 24.828 62.4233 25.46C62.7673 26.084 62.9393 26.852 62.9393 27.764C62.9393 28.676 62.7673 29.448 62.4233 30.08C62.0873 30.704 61.5953 31.18 60.9473 31.508C60.2993 31.836 59.5113 32 58.5833 32H55.5953ZM56.8433 30.956H58.5113C59.5593 30.956 60.3433 30.692 60.8633 30.164C61.3833 29.628 61.6433 28.828 61.6433 27.764C61.6433 26.7 61.3793 25.904 60.8513 25.376C60.3313 24.848 59.5513 24.584 58.5113 24.584H56.8433V30.956ZM64.367 24.788V23.528H65.783V24.788H64.367ZM64.475 32V26.144H65.687V32H64.475ZM74.4694 32.108C73.6134 32.108 72.8814 31.932 72.2734 31.58C71.6654 31.228 71.1974 30.728 70.8694 30.08C70.5494 29.424 70.3894 28.652 70.3894 27.764C70.3894 26.876 70.5494 26.108 70.8694 25.46C71.1974 24.812 71.6654 24.312 72.2734 23.96C72.8814 23.608 73.6134 23.432 74.4694 23.432C75.0454 23.432 75.5814 23.524 76.0774 23.708C76.5814 23.884 77.0014 24.14 77.3374 24.476L76.9054 25.472C76.5374 25.144 76.1574 24.908 75.7654 24.764C75.3814 24.612 74.9614 24.536 74.5054 24.536C73.5934 24.536 72.8974 24.816 72.4174 25.376C71.9374 25.936 71.6974 26.732 71.6974 27.764C71.6974 28.796 71.9374 29.596 72.4174 30.164C72.8974 30.724 73.5934 31.004 74.5054 31.004C74.9614 31.004 75.3814 30.932 75.7654 30.788C76.1574 30.636 76.5374 30.396 76.9054 30.068L77.3374 31.064C77.0014 31.4 76.5814 31.66 76.0774 31.844C75.5814 32.02 75.0454 32.108 74.4694 32.108ZM80.7769 32.108C80.1849 32.108 79.6729 31.984 79.2409 31.736C78.8169 31.488 78.4849 31.136 78.2449 30.68C78.0049 30.224 77.8849 29.688 77.8849 29.072C77.8849 28.448 78.0049 27.912 78.2449 27.464C78.4849 27.008 78.8169 26.656 79.2409 26.408C79.6729 26.16 80.1849 26.036 80.7769 26.036C81.3609 26.036 81.8649 26.16 82.2889 26.408C82.7209 26.656 83.0569 27.008 83.2969 27.464C83.5369 27.92 83.6569 28.456 83.6569 29.072C83.6569 29.688 83.5369 30.224 83.2969 30.68C83.0569 31.136 82.7209 31.488 82.2889 31.736C81.8649 31.984 81.3609 32.108 80.7769 32.108ZM80.7649 31.172C81.2689 31.172 81.6729 30.992 81.9769 30.632C82.2809 30.272 82.4329 29.752 82.4329 29.072C82.4329 28.384 82.2809 27.864 81.9769 27.512C81.6729 27.16 81.2689 26.984 80.7649 26.984C80.2689 26.984 79.8689 27.16 79.5649 27.512C79.2609 27.864 79.1089 28.384 79.1089 29.072C79.1089 29.752 79.2609 30.272 79.5649 30.632C79.8689 30.992 80.2689 31.172 80.7649 31.172ZM85.018 32V26.144H86.194V27.392H86.062C86.238 26.944 86.514 26.608 86.89 26.384C87.266 26.152 87.698 26.036 88.186 26.036C88.65 26.036 89.034 26.124 89.338 26.3C89.65 26.468 89.882 26.728 90.034 27.08C90.186 27.424 90.262 27.86 90.262 28.388V32H89.05V28.46C89.05 28.124 89.006 27.852 88.918 27.644C88.83 27.428 88.698 27.268 88.522 27.164C88.346 27.06 88.118 27.008 87.838 27.008C87.518 27.008 87.234 27.076 86.986 27.212C86.746 27.348 86.558 27.544 86.422 27.8C86.294 28.056 86.23 28.352 86.23 28.688V32H85.018ZM94.1641 32.108C93.6521 32.108 93.2001 31.988 92.8081 31.748C92.4241 31.5 92.1241 31.148 91.9081 30.692C91.6921 30.228 91.5841 29.688 91.5841 29.072C91.5841 28.44 91.6921 27.9 91.9081 27.452C92.1241 27.004 92.4241 26.656 92.8081 26.408C93.2001 26.16 93.6521 26.036 94.1641 26.036C94.6761 26.036 95.1161 26.164 95.4841 26.42C95.8601 26.668 96.1121 27.004 96.2401 27.428H96.1081V23.54H97.3201V32H96.1321V30.68H96.2521C96.1241 31.112 95.8721 31.46 95.4961 31.724C95.1281 31.98 94.6841 32.108 94.1641 32.108ZM94.4761 31.172C94.9721 31.172 95.3721 30.992 95.6761 30.632C95.9801 30.272 96.1321 29.752 96.1321 29.072C96.1321 28.384 95.9801 27.864 95.6761 27.512C95.3721 27.16 94.9721 26.984 94.4761 26.984C93.9721 26.984 93.5681 27.16 93.2641 27.512C92.9601 27.864 92.8081 28.384 92.8081 29.072C92.8081 29.752 92.9601 30.272 93.2641 30.632C93.5681 30.992 93.9721 31.172 94.4761 31.172ZM101.11 32.108C100.638 32.108 100.242 32.02 99.9219 31.844C99.6099 31.668 99.3739 31.408 99.2139 31.064C99.0619 30.712 98.9859 30.272 98.9859 29.744V26.144H100.198V29.756C100.198 30.068 100.238 30.328 100.318 30.536C100.406 30.744 100.538 30.896 100.714 30.992C100.898 31.088 101.126 31.136 101.398 31.136C101.702 31.136 101.97 31.068 102.202 30.932C102.434 30.796 102.614 30.6 102.742 30.344C102.87 30.088 102.934 29.792 102.934 29.456V26.144H104.146V32H102.97V30.716H103.126C102.966 31.164 102.71 31.508 102.358 31.748C102.006 31.988 101.59 32.108 101.11 32.108ZM108.434 32.108C107.834 32.108 107.314 31.984 106.874 31.736C106.442 31.48 106.106 31.124 105.866 30.668C105.626 30.204 105.506 29.66 105.506 29.036C105.506 28.42 105.626 27.888 105.866 27.44C106.106 26.992 106.442 26.648 106.874 26.408C107.314 26.16 107.834 26.036 108.434 26.036C108.802 26.036 109.166 26.1 109.526 26.228C109.886 26.348 110.182 26.524 110.414 26.756L110.03 27.608C109.814 27.4 109.57 27.248 109.298 27.152C109.026 27.048 108.77 26.996 108.53 26.996C107.962 26.996 107.522 27.176 107.21 27.536C106.906 27.888 106.754 28.392 106.754 29.048C106.754 29.704 106.906 30.22 107.21 30.596C107.522 30.964 107.962 31.148 108.53 31.148C108.77 31.148 109.026 31.1 109.298 31.004C109.57 30.9 109.814 30.744 110.03 30.536L110.414 31.4C110.182 31.616 109.882 31.788 109.514 31.916C109.154 32.044 108.794 32.108 108.434 32.108ZM113.963 32.108C113.235 32.108 112.687 31.92 112.319 31.544C111.959 31.168 111.779 30.624 111.779 29.912V27.08H110.639V26.144H111.779V24.38H112.991V26.144H114.803V27.08H112.991V29.816C112.991 30.24 113.079 30.56 113.255 30.776C113.439 30.992 113.735 31.1 114.143 31.1C114.263 31.1 114.383 31.084 114.503 31.052C114.631 31.02 114.755 30.988 114.875 30.956L115.067 31.868C114.947 31.94 114.779 31.996 114.563 32.036C114.355 32.084 114.155 32.108 113.963 32.108ZM118.335 32.108C117.743 32.108 117.231 31.984 116.799 31.736C116.375 31.488 116.043 31.136 115.803 30.68C115.563 30.224 115.443 29.688 115.443 29.072C115.443 28.448 115.563 27.912 115.803 27.464C116.043 27.008 116.375 26.656 116.799 26.408C117.231 26.16 117.743 26.036 118.335 26.036C118.919 26.036 119.423 26.16 119.847 26.408C120.279 26.656 120.615 27.008 120.855 27.464C121.095 27.92 121.215 28.456 121.215 29.072C121.215 29.688 121.095 30.224 120.855 30.68C120.615 31.136 120.279 31.488 119.847 31.736C119.423 31.984 118.919 32.108 118.335 32.108ZM118.323 31.172C118.827 31.172 119.231 30.992 119.535 30.632C119.839 30.272 119.991 29.752 119.991 29.072C119.991 28.384 119.839 27.864 119.535 27.512C119.231 27.16 118.827 26.984 118.323 26.984C117.827 26.984 117.427 27.16 117.123 27.512C116.819 27.864 116.667 28.384 116.667 29.072C116.667 29.752 116.819 30.272 117.123 30.632C117.427 30.992 117.827 31.172 118.323 31.172ZM122.577 32V26.144H123.753V27.548H123.633C123.761 27.068 123.989 26.704 124.317 26.456C124.653 26.208 125.097 26.064 125.649 26.024L126.045 26L126.129 27.032L125.397 27.104C124.877 27.152 124.481 27.316 124.209 27.596C123.937 27.876 123.801 28.26 123.801 28.748V32H122.577ZM127.263 33.476L126.735 33.068C126.895 32.9 127.015 32.744 127.095 32.6C127.183 32.456 127.243 32.312 127.275 32.168C127.315 32.024 127.335 31.88 127.335 31.736L127.599 32H126.651V30.572H128.079V31.544C128.079 31.784 128.051 32.012 127.995 32.228C127.947 32.444 127.863 32.652 127.743 32.852C127.631 33.06 127.471 33.268 127.263 33.476ZM135.231 32L132.267 23.54H133.539L136.023 30.848H135.579L138.135 23.54H139.083L141.591 30.848H141.195L143.703 23.54H144.915L141.927 32H140.883L138.459 25.052H138.723L136.275 32H135.231ZM147.253 32.108C146.845 32.108 146.477 32.028 146.149 31.868C145.829 31.708 145.577 31.492 145.393 31.22C145.209 30.948 145.117 30.64 145.117 30.296C145.117 29.864 145.225 29.524 145.441 29.276C145.665 29.02 146.029 28.84 146.533 28.736C147.045 28.624 147.733 28.568 148.597 28.568H149.161V29.312H148.609C148.177 29.312 147.813 29.328 147.517 29.36C147.221 29.392 146.985 29.444 146.809 29.516C146.633 29.58 146.505 29.672 146.425 29.792C146.353 29.912 146.317 30.056 146.317 30.224C146.317 30.528 146.421 30.776 146.629 30.968C146.837 31.152 147.125 31.244 147.493 31.244C147.789 31.244 148.049 31.176 148.273 31.04C148.497 30.896 148.673 30.704 148.801 30.464C148.937 30.224 149.005 29.948 149.005 29.636V28.256C149.005 27.8 148.909 27.472 148.717 27.272C148.525 27.072 148.209 26.972 147.769 26.972C147.433 26.972 147.097 27.024 146.761 27.128C146.425 27.224 146.081 27.38 145.729 27.596L145.357 26.744C145.565 26.6 145.805 26.476 146.077 26.372C146.349 26.268 146.633 26.188 146.929 26.132C147.233 26.068 147.525 26.036 147.805 26.036C148.341 26.036 148.781 26.12 149.125 26.288C149.477 26.456 149.737 26.712 149.905 27.056C150.073 27.4 150.157 27.844 150.157 28.388V32H149.017V30.692H149.125C149.061 30.988 148.941 31.244 148.765 31.46C148.597 31.668 148.385 31.828 148.129 31.94C147.873 32.052 147.581 32.108 147.253 32.108ZM151.599 32V31.208L155.031 26.78V27.08H151.599V26.144H156.123V26.948L152.667 31.4V31.076H156.255V32H151.599ZM160.071 32.108C159.431 32.108 158.879 31.988 158.415 31.748C157.959 31.5 157.603 31.152 157.347 30.704C157.099 30.248 156.975 29.708 156.975 29.084C156.975 28.476 157.099 27.944 157.347 27.488C157.595 27.032 157.935 26.676 158.367 26.42C158.799 26.164 159.291 26.036 159.843 26.036C160.387 26.036 160.851 26.156 161.235 26.396C161.627 26.628 161.927 26.96 162.135 27.392C162.343 27.824 162.447 28.34 162.447 28.94V29.348H157.935V28.604H161.631L161.427 28.772C161.427 28.172 161.295 27.708 161.031 27.38C160.767 27.052 160.387 26.888 159.891 26.888C159.515 26.888 159.195 26.976 158.931 27.152C158.675 27.328 158.479 27.572 158.343 27.884C158.207 28.196 158.139 28.56 158.139 28.976V29.048C158.139 29.512 158.211 29.904 158.355 30.224C158.507 30.536 158.727 30.772 159.015 30.932C159.303 31.092 159.659 31.172 160.083 31.172C160.419 31.172 160.747 31.12 161.067 31.016C161.395 30.904 161.703 30.732 161.991 30.5L162.351 31.34C162.087 31.58 161.747 31.768 161.331 31.904C160.915 32.04 160.495 32.108 160.071 32.108ZM42.077 50.16L43.229 47.592V48.108L40.673 42.144H41.969L43.937 47.004H43.601L45.593 42.144H46.841L43.349 50.16H42.077ZM54.9557 48.108C54.0357 48.108 53.2597 47.936 52.6277 47.592C51.9957 47.24 51.5157 46.74 51.1877 46.092C50.8677 45.444 50.7077 44.672 50.7077 43.776C50.7077 42.88 50.8717 42.108 51.1997 41.46C51.5357 40.812 52.0117 40.312 52.6277 39.96C53.2517 39.608 53.9997 39.432 54.8717 39.432C55.2717 39.432 55.6517 39.472 56.0117 39.552C56.3717 39.624 56.7037 39.736 57.0077 39.888C57.3197 40.04 57.5917 40.228 57.8237 40.452L57.3797 41.424C57.0037 41.104 56.6117 40.876 56.2037 40.74C55.8037 40.596 55.3597 40.524 54.8717 40.524C53.9357 40.524 53.2237 40.808 52.7357 41.376C52.2477 41.936 52.0037 42.736 52.0037 43.776C52.0037 44.84 52.2557 45.648 52.7597 46.2C53.2637 46.752 54.0117 47.028 55.0037 47.028C55.3637 47.028 55.7157 46.996 56.0597 46.932C56.4117 46.86 56.7477 46.76 57.0677 46.632L56.8157 47.256V44.46H54.7517V43.524H57.8597V47.508C57.6277 47.628 57.3477 47.732 57.0197 47.82C56.6997 47.908 56.3597 47.976 55.9997 48.024C55.6477 48.08 55.2997 48.108 54.9557 48.108ZM62.1851 48.108C61.5931 48.108 61.0811 47.984 60.6491 47.736C60.2251 47.488 59.8931 47.136 59.6531 46.68C59.4131 46.224 59.2931 45.688 59.2931 45.072C59.2931 44.448 59.4131 43.912 59.6531 43.464C59.8931 43.008 60.2251 42.656 60.6491 42.408C61.0811 42.16 61.5931 42.036 62.1851 42.036C62.7691 42.036 63.2731 42.16 63.6971 42.408C64.1291 42.656 64.4651 43.008 64.7051 43.464C64.9451 43.92 65.0651 44.456 65.0651 45.072C65.0651 45.688 64.9451 46.224 64.7051 46.68C64.4651 47.136 64.1291 47.488 63.6971 47.736C63.2731 47.984 62.7691 48.108 62.1851 48.108ZM62.1731 47.172C62.6771 47.172 63.0811 46.992 63.3851 46.632C63.6891 46.272 63.8411 45.752 63.8411 45.072C63.8411 44.384 63.6891 43.864 63.3851 43.512C63.0811 43.16 62.6771 42.984 62.1731 42.984C61.6771 42.984 61.2771 43.16 60.9731 43.512C60.6691 43.864 60.5171 44.384 60.5171 45.072C60.5171 45.752 60.6691 46.272 60.9731 46.632C61.2771 46.992 61.6771 47.172 62.1731 47.172ZM68.9702 48.108C68.3782 48.108 67.8662 47.984 67.4342 47.736C67.0102 47.488 66.6782 47.136 66.4382 46.68C66.1982 46.224 66.0782 45.688 66.0782 45.072C66.0782 44.448 66.1982 43.912 66.4382 43.464C66.6782 43.008 67.0102 42.656 67.4342 42.408C67.8662 42.16 68.3782 42.036 68.9702 42.036C69.5542 42.036 70.0582 42.16 70.4822 42.408C70.9142 42.656 71.2502 43.008 71.4902 43.464C71.7302 43.92 71.8502 44.456 71.8502 45.072C71.8502 45.688 71.7302 46.224 71.4902 46.68C71.2502 47.136 70.9142 47.488 70.4822 47.736C70.0582 47.984 69.5542 48.108 68.9702 48.108ZM68.9582 47.172C69.4622 47.172 69.8662 46.992 70.1702 46.632C70.4742 46.272 70.6262 45.752 70.6262 45.072C70.6262 44.384 70.4742 43.864 70.1702 43.512C69.8662 43.16 69.4622 42.984 68.9582 42.984C68.4622 42.984 68.0622 43.16 67.7582 43.512C67.4542 43.864 67.3022 44.384 67.3022 45.072C67.3022 45.752 67.4542 46.272 67.7582 46.632C68.0622 46.992 68.4622 47.172 68.9582 47.172ZM75.8634 50.268C75.3354 50.268 74.8434 50.204 74.3874 50.076C73.9314 49.948 73.5274 49.756 73.1754 49.5L73.5474 48.636C73.7794 48.788 74.0154 48.916 74.2554 49.02C74.5034 49.132 74.7514 49.212 74.9994 49.26C75.2554 49.308 75.5154 49.332 75.7794 49.332C76.3394 49.332 76.7594 49.188 77.0394 48.9C77.3194 48.62 77.4594 48.204 77.4594 47.652V46.428H77.5674C77.4474 46.868 77.1954 47.216 76.8114 47.472C76.4274 47.728 75.9834 47.856 75.4794 47.856C74.9514 47.856 74.4914 47.736 74.0994 47.496C73.7074 47.248 73.4034 46.908 73.1874 46.476C72.9714 46.036 72.8634 45.524 72.8634 44.94C72.8634 44.356 72.9714 43.848 73.1874 43.416C73.4034 42.984 73.7074 42.648 74.0994 42.408C74.4914 42.16 74.9514 42.036 75.4794 42.036C75.9914 42.036 76.4354 42.164 76.8114 42.42C77.1954 42.676 77.4434 43.024 77.5554 43.464H77.4594V42.144H78.6354V47.508C78.6354 48.116 78.5314 48.624 78.3234 49.032C78.1154 49.448 77.8034 49.756 77.3874 49.956C76.9794 50.164 76.4714 50.268 75.8634 50.268ZM75.7674 46.908C76.2874 46.908 76.6954 46.732 76.9914 46.38C77.2954 46.028 77.4474 45.548 77.4474 44.94C77.4474 44.34 77.2954 43.864 76.9914 43.512C76.6954 43.16 76.2874 42.984 75.7674 42.984C75.2554 42.984 74.8474 43.16 74.5434 43.512C74.2394 43.864 74.0874 44.34 74.0874 44.94C74.0874 45.548 74.2394 46.028 74.5434 46.38C74.8474 46.732 75.2554 46.908 75.7674 46.908ZM82.2444 48.108C81.6044 48.108 81.1244 47.928 80.8044 47.568C80.4924 47.2 80.3364 46.672 80.3364 45.984V39.54H81.5484V45.912C81.5484 46.168 81.5844 46.388 81.6564 46.572C81.7284 46.748 81.8364 46.88 81.9804 46.968C82.1244 47.056 82.3044 47.1 82.5204 47.1C82.6164 47.1 82.7084 47.096 82.7964 47.088C82.8844 47.08 82.9684 47.064 83.0484 47.04L83.0244 48.012C82.8884 48.044 82.7564 48.068 82.6284 48.084C82.5004 48.1 82.3724 48.108 82.2444 48.108ZM86.6938 48.108C86.0538 48.108 85.5018 47.988 85.0378 47.748C84.5818 47.5 84.2258 47.152 83.9698 46.704C83.7218 46.248 83.5978 45.708 83.5978 45.084C83.5978 44.476 83.7218 43.944 83.9698 43.488C84.2178 43.032 84.5578 42.676 84.9898 42.42C85.4218 42.164 85.9138 42.036 86.4658 42.036C87.0098 42.036 87.4738 42.156 87.8578 42.396C88.2498 42.628 88.5498 42.96 88.7578 43.392C88.9658 43.824 89.0698 44.34 89.0698 44.94V45.348H84.5578V44.604H88.2538L88.0498 44.772C88.0498 44.172 87.9178 43.708 87.6538 43.38C87.3898 43.052 87.0098 42.888 86.5138 42.888C86.1378 42.888 85.8178 42.976 85.5538 43.152C85.2978 43.328 85.1018 43.572 84.9658 43.884C84.8298 44.196 84.7618 44.56 84.7618 44.976V45.048C84.7618 45.512 84.8338 45.904 84.9778 46.224C85.1298 46.536 85.3498 46.772 85.6378 46.932C85.9258 47.092 86.2818 47.172 86.7058 47.172C87.0418 47.172 87.3698 47.12 87.6898 47.016C88.0178 46.904 88.3258 46.732 88.6138 46.5L88.9738 47.34C88.7098 47.58 88.3698 47.768 87.9538 47.904C87.5378 48.04 87.1178 48.108 86.6938 48.108ZM93.6994 48V39.54H94.7434L98.0674 45.732H97.6954L100.995 39.54H102.015V48H100.899V41.304H101.163L98.2474 46.704H97.4914L94.5394 41.292H94.8274V48H93.6994ZM105.751 48.108C105.343 48.108 104.975 48.028 104.647 47.868C104.327 47.708 104.075 47.492 103.891 47.22C103.707 46.948 103.615 46.64 103.615 46.296C103.615 45.864 103.723 45.524 103.939 45.276C104.163 45.02 104.527 44.84 105.031 44.736C105.543 44.624 106.231 44.568 107.095 44.568H107.659V45.312H107.107C106.675 45.312 106.311 45.328 106.015 45.36C105.719 45.392 105.483 45.444 105.307 45.516C105.131 45.58 105.003 45.672 104.923 45.792C104.851 45.912 104.815 46.056 104.815 46.224C104.815 46.528 104.919 46.776 105.127 46.968C105.335 47.152 105.623 47.244 105.991 47.244C106.287 47.244 106.547 47.176 106.771 47.04C106.995 46.896 107.171 46.704 107.299 46.464C107.435 46.224 107.503 45.948 107.503 45.636V44.256C107.503 43.8 107.407 43.472 107.215 43.272C107.023 43.072 106.707 42.972 106.267 42.972C105.931 42.972 105.595 43.024 105.259 43.128C104.923 43.224 104.579 43.38 104.227 43.596L103.855 42.744C104.063 42.6 104.303 42.476 104.575 42.372C104.847 42.268 105.131 42.188 105.427 42.132C105.731 42.068 106.023 42.036 106.303 42.036C106.839 42.036 107.279 42.12 107.623 42.288C107.975 42.456 108.235 42.712 108.403 43.056C108.571 43.4 108.655 43.844 108.655 44.388V48H107.515V46.692H107.623C107.559 46.988 107.439 47.244 107.263 47.46C107.095 47.668 106.883 47.828 106.627 47.94C106.371 48.052 106.079 48.108 105.751 48.108ZM110.325 50.16V42.144H111.513V43.464H111.381C111.509 43.032 111.761 42.688 112.137 42.432C112.513 42.168 112.957 42.036 113.469 42.036C113.989 42.036 114.441 42.16 114.825 42.408C115.217 42.656 115.517 43.004 115.725 43.452C115.941 43.9 116.049 44.44 116.049 45.072C116.049 45.688 115.941 46.228 115.725 46.692C115.517 47.148 115.221 47.5 114.837 47.748C114.453 47.988 113.997 48.108 113.469 48.108C112.965 48.108 112.525 47.98 112.149 47.724C111.773 47.468 111.521 47.128 111.393 46.704H111.537V50.16H110.325ZM113.169 47.172C113.673 47.172 114.073 46.992 114.369 46.632C114.673 46.272 114.825 45.752 114.825 45.072C114.825 44.384 114.673 43.864 114.369 43.512C114.073 43.16 113.673 42.984 113.169 42.984C112.673 42.984 112.273 43.16 111.969 43.512C111.665 43.864 111.513 44.384 111.513 45.072C111.513 45.752 111.665 46.272 111.969 46.632C112.273 46.992 112.673 47.172 113.169 47.172ZM119.467 48.108C119.155 48.108 118.851 48.08 118.555 48.024C118.259 47.968 117.987 47.888 117.739 47.784C117.491 47.68 117.271 47.552 117.079 47.4L117.427 46.584C117.627 46.72 117.839 46.84 118.062 46.944C118.287 47.04 118.519 47.112 118.759 47.16C119.007 47.208 119.247 47.232 119.479 47.232C119.903 47.232 120.223 47.156 120.439 47.004C120.655 46.852 120.763 46.648 120.763 46.392C120.763 46.184 120.691 46.024 120.547 45.912C120.403 45.792 120.187 45.7 119.899 45.636L118.759 45.408C118.263 45.304 117.887 45.12 117.631 44.856C117.375 44.592 117.247 44.256 117.247 43.848C117.247 43.48 117.347 43.16 117.547 42.888C117.747 42.616 118.027 42.408 118.387 42.264C118.747 42.112 119.163 42.036 119.635 42.036C119.907 42.036 120.171 42.064 120.427 42.12C120.683 42.176 120.923 42.256 121.147 42.36C121.379 42.464 121.575 42.596 121.735 42.756L121.387 43.572C121.235 43.436 121.059 43.32 120.859 43.224C120.667 43.128 120.467 43.056 120.259 43.008C120.051 42.952 119.843 42.924 119.635 42.924C119.211 42.924 118.891 43.004 118.675 43.164C118.467 43.316 118.363 43.524 118.363 43.788C118.363 43.988 118.427 44.152 118.555 44.28C118.683 44.408 118.883 44.5 119.155 44.556L120.295 44.784C120.815 44.888 121.207 45.064 121.471 45.312C121.743 45.56 121.879 45.896 121.879 46.32C121.879 46.688 121.779 47.008 121.579 47.28C121.379 47.552 121.095 47.76 120.727 47.904C120.367 48.04 119.947 48.108 119.467 48.108Z" fill="#282828"/>
<path d="M220.29 16V4.72H225.714C226.994 4.72 227.98 5.03467 228.674 5.664C229.378 6.28267 229.73 7.14667 229.73 8.256C229.73 8.97067 229.57 9.59467 229.25 10.128C228.94 10.6507 228.487 11.056 227.89 11.344C227.303 11.6213 226.578 11.76 225.714 11.76L225.842 11.472H226.61C227.068 11.472 227.474 11.584 227.826 11.808C228.178 12.0213 228.471 12.352 228.706 12.8L230.466 16H227.234L225.282 12.416C225.196 12.256 225.095 12.1333 224.978 12.048C224.86 11.9627 224.727 11.8987 224.578 11.856C224.439 11.8133 224.284 11.792 224.114 11.792H223.234V16H220.29ZM223.234 9.712H225.186C225.751 9.712 226.183 9.6 226.482 9.376C226.78 9.152 226.93 8.80533 226.93 8.336C226.93 7.888 226.78 7.552 226.482 7.328C226.183 7.09333 225.751 6.976 225.186 6.976H223.234V9.712ZM235.464 16.176C234.504 16.176 233.672 16.0107 232.968 15.68C232.274 15.3387 231.741 14.8587 231.368 14.24C230.994 13.6213 230.808 12.8907 230.808 12.048C230.808 11.2373 230.984 10.528 231.336 9.92C231.698 9.30133 232.189 8.82133 232.808 8.48C233.437 8.128 234.152 7.952 234.952 7.952C235.752 7.952 236.44 8.11733 237.016 8.448C237.592 8.77867 238.034 9.25333 238.344 9.872C238.664 10.48 238.824 11.1947 238.824 12.016V12.64H233.192V11.296H236.744L236.488 11.504C236.488 10.928 236.365 10.5013 236.12 10.224C235.874 9.936 235.528 9.792 235.08 9.792C234.749 9.792 234.461 9.872 234.216 10.032C233.981 10.1813 233.8 10.4053 233.672 10.704C233.544 11.0027 233.48 11.376 233.48 11.824V11.968C233.48 12.4693 233.549 12.8747 233.688 13.184C233.837 13.4933 234.066 13.7227 234.376 13.872C234.685 14.0107 235.074 14.08 235.544 14.08C235.949 14.08 236.37 14.0213 236.808 13.904C237.256 13.776 237.65 13.5947 237.992 13.36L238.696 15.232C238.29 15.52 237.794 15.7493 237.208 15.92C236.621 16.0907 236.04 16.176 235.464 16.176ZM243.123 16.176C242.451 16.176 241.853 16.0107 241.331 15.68C240.819 15.3493 240.413 14.8747 240.115 14.256C239.827 13.6373 239.683 12.9067 239.683 12.064C239.683 11.2 239.827 10.464 240.115 9.856C240.413 9.248 240.819 8.77867 241.331 8.448C241.853 8.11733 242.451 7.952 243.123 7.952C243.709 7.952 244.237 8.09067 244.707 8.368C245.176 8.64533 245.491 9.00267 245.651 9.44H245.475V4.72H248.323V16H245.539V14.576H245.683C245.533 15.056 245.219 15.4453 244.739 15.744C244.269 16.032 243.731 16.176 243.123 16.176ZM244.035 14.08C244.461 14.08 244.813 13.92 245.091 13.6C245.368 13.28 245.507 12.768 245.507 12.064C245.507 11.3493 245.368 10.8373 245.091 10.528C244.813 10.208 244.461 10.048 244.035 10.048C243.597 10.048 243.24 10.208 242.963 10.528C242.685 10.8373 242.547 11.3493 242.547 12.064C242.547 12.768 242.685 13.28 242.963 13.6C243.24 13.92 243.597 14.08 244.035 14.08ZM254.261 16.176C253.301 16.176 252.469 16.0107 251.765 15.68C251.071 15.3387 250.538 14.8587 250.165 14.24C249.791 13.6213 249.605 12.8907 249.605 12.048C249.605 11.2373 249.781 10.528 250.133 9.92C250.495 9.30133 250.986 8.82133 251.605 8.48C252.234 8.128 252.949 7.952 253.749 7.952C254.549 7.952 255.237 8.11733 255.813 8.448C256.389 8.77867 256.831 9.25333 257.141 9.872C257.461 10.48 257.621 11.1947 257.621 12.016V12.64H251.989V11.296H255.541L255.285 11.504C255.285 10.928 255.162 10.5013 254.917 10.224C254.671 9.936 254.325 9.792 253.877 9.792C253.546 9.792 253.258 9.872 253.013 10.032C252.778 10.1813 252.597 10.4053 252.469 10.704C252.341 11.0027 252.277 11.376 252.277 11.824V11.968C252.277 12.4693 252.346 12.8747 252.485 13.184C252.634 13.4933 252.863 13.7227 253.173 13.872C253.482 14.0107 253.871 14.08 254.341 14.08C254.746 14.08 255.167 14.0213 255.605 13.904C256.053 13.776 256.447 13.5947 256.789 13.36L257.493 15.232C257.087 15.52 256.591 15.7493 256.005 15.92C255.418 16.0907 254.837 16.176 254.261 16.176ZM261.984 16.176C261.504 16.176 261.04 16.144 260.592 16.08C260.154 16.016 259.754 15.92 259.392 15.792C259.029 15.664 258.704 15.5093 258.416 15.328L259.072 13.488C259.338 13.6373 259.632 13.7707 259.952 13.888C260.282 14.0053 260.624 14.096 260.976 14.16C261.328 14.224 261.669 14.256 262 14.256C262.394 14.256 262.677 14.2027 262.848 14.096C263.018 13.9787 263.104 13.8293 263.104 13.648C263.104 13.488 263.045 13.3653 262.928 13.28C262.821 13.1947 262.666 13.136 262.464 13.104L260.688 12.816C260.026 12.6987 259.514 12.4587 259.152 12.096C258.789 11.7227 258.608 11.2373 258.608 10.64C258.608 10.0853 258.762 9.61067 259.072 9.216C259.392 8.81067 259.824 8.50133 260.368 8.288C260.922 8.064 261.557 7.952 262.272 7.952C262.656 7.952 263.034 7.984 263.408 8.048C263.781 8.10133 264.138 8.192 264.48 8.32C264.821 8.43733 265.13 8.59733 265.408 8.8L264.704 10.608C264.501 10.4587 264.261 10.3307 263.984 10.224C263.706 10.1173 263.418 10.032 263.12 9.968C262.832 9.89333 262.565 9.856 262.32 9.856C261.882 9.856 261.573 9.91467 261.392 10.032C261.21 10.1493 261.12 10.2987 261.12 10.48C261.12 10.6187 261.168 10.736 261.264 10.832C261.36 10.9173 261.509 10.976 261.712 11.008L263.488 11.312C264.17 11.4187 264.693 11.6533 265.056 12.016C265.429 12.368 265.616 12.848 265.616 13.456C265.616 14.032 265.466 14.5227 265.168 14.928C264.869 15.3333 264.448 15.6427 263.904 15.856C263.36 16.0693 262.72 16.176 261.984 16.176ZM274.499 16.176C274.019 16.176 273.555 16.144 273.107 16.08C272.67 16.016 272.27 15.92 271.907 15.792C271.545 15.664 271.219 15.5093 270.931 15.328L271.587 13.488C271.854 13.6373 272.147 13.7707 272.467 13.888C272.798 14.0053 273.139 14.096 273.491 14.16C273.843 14.224 274.185 14.256 274.515 14.256C274.91 14.256 275.193 14.2027 275.363 14.096C275.534 13.9787 275.619 13.8293 275.619 13.648C275.619 13.488 275.561 13.3653 275.443 13.28C275.337 13.1947 275.182 13.136 274.979 13.104L273.203 12.816C272.542 12.6987 272.03 12.4587 271.667 12.096C271.305 11.7227 271.123 11.2373 271.123 10.64C271.123 10.0853 271.278 9.61067 271.587 9.216C271.907 8.81067 272.339 8.50133 272.883 8.288C273.438 8.064 274.073 7.952 274.787 7.952C275.171 7.952 275.55 7.984 275.923 8.048C276.297 8.10133 276.654 8.192 276.995 8.32C277.337 8.43733 277.646 8.59733 277.923 8.8L277.219 10.608C277.017 10.4587 276.777 10.3307 276.499 10.224C276.222 10.1173 275.934 10.032 275.635 9.968C275.347 9.89333 275.081 9.856 274.835 9.856C274.398 9.856 274.089 9.91467 273.907 10.032C273.726 10.1493 273.635 10.2987 273.635 10.48C273.635 10.6187 273.683 10.736 273.779 10.832C273.875 10.9173 274.025 10.976 274.227 11.008L276.003 11.312C276.686 11.4187 277.209 11.6533 277.571 12.016C277.945 12.368 278.131 12.848 278.131 13.456C278.131 14.032 277.982 14.5227 277.683 14.928C277.385 15.3333 276.963 15.6427 276.419 15.856C275.875 16.0693 275.235 16.176 274.499 16.176ZM283.285 16.176C282.41 16.176 281.647 16.0107 280.997 15.68C280.346 15.3493 279.839 14.8747 279.477 14.256C279.114 13.6373 278.933 12.9067 278.933 12.064C278.933 11.2107 279.114 10.48 279.477 9.872C279.839 9.25333 280.346 8.77867 280.997 8.448C281.647 8.11733 282.41 7.952 283.285 7.952C284.159 7.952 284.922 8.11733 285.573 8.448C286.223 8.77867 286.725 9.25333 287.077 9.872C287.439 10.48 287.621 11.2107 287.621 12.064C287.621 12.9067 287.439 13.6373 287.077 14.256C286.725 14.8747 286.223 15.3493 285.573 15.68C284.922 16.0107 284.159 16.176 283.285 16.176ZM283.285 14.08C283.711 14.08 284.063 13.92 284.341 13.6C284.618 13.28 284.757 12.768 284.757 12.064C284.757 11.3493 284.618 10.8373 284.341 10.528C284.063 10.208 283.711 10.048 283.285 10.048C282.847 10.048 282.49 10.208 282.213 10.528C281.935 10.8373 281.797 11.3493 281.797 12.064C281.797 12.768 281.935 13.28 282.213 13.6C282.49 13.92 282.847 14.08 283.285 14.08ZM292.942 16.176C292.056 16.176 291.283 16.0107 290.622 15.68C289.971 15.3493 289.464 14.8747 289.102 14.256C288.739 13.6267 288.558 12.8907 288.558 12.048C288.558 11.1947 288.739 10.464 289.102 9.856C289.464 9.23733 289.971 8.768 290.622 8.448C291.283 8.11733 292.056 7.952 292.942 7.952C293.464 7.952 293.987 8.02133 294.51 8.16C295.032 8.29867 295.454 8.50133 295.774 8.768L295.022 10.72C294.776 10.528 294.488 10.3787 294.158 10.272C293.838 10.1547 293.534 10.096 293.246 10.096C292.68 10.096 292.243 10.2667 291.934 10.608C291.624 10.9387 291.47 11.4187 291.47 12.048C291.47 12.6667 291.624 13.152 291.934 13.504C292.243 13.856 292.68 14.032 293.246 14.032C293.534 14.032 293.838 13.9787 294.158 13.872C294.488 13.7547 294.776 13.6 295.022 13.408L295.774 15.36C295.454 15.6053 295.032 15.8027 294.51 15.952C293.987 16.1013 293.464 16.176 292.942 16.176ZM296.596 6.768V4.192H299.588V6.768H296.596ZM296.676 16V8.128H299.524V16H296.676ZM303.912 16.176C303.304 16.176 302.765 16.064 302.296 15.84C301.837 15.616 301.474 15.312 301.208 14.928C300.952 14.5333 300.824 14.0853 300.824 13.584C300.824 13.008 300.973 12.5547 301.272 12.224C301.57 11.8933 302.05 11.6587 302.712 11.52C303.373 11.3707 304.253 11.296 305.352 11.296H306.232V12.64H305.352C305.042 12.64 304.77 12.656 304.536 12.688C304.312 12.72 304.125 12.7733 303.976 12.848C303.826 12.912 303.714 12.9973 303.64 13.104C303.565 13.2107 303.528 13.3333 303.528 13.472C303.528 13.7173 303.613 13.92 303.784 14.08C303.965 14.24 304.221 14.32 304.552 14.32C304.818 14.32 305.053 14.2613 305.256 14.144C305.469 14.0267 305.64 13.8667 305.768 13.664C305.896 13.4507 305.96 13.2053 305.96 12.928V11.072C305.96 10.688 305.858 10.416 305.656 10.256C305.464 10.096 305.128 10.016 304.648 10.016C304.242 10.016 303.794 10.08 303.304 10.208C302.813 10.336 302.333 10.5333 301.864 10.8L301.144 8.928C301.421 8.736 301.762 8.56533 302.168 8.416C302.584 8.26667 303.021 8.15467 303.48 8.08C303.949 7.99467 304.381 7.952 304.776 7.952C305.65 7.952 306.37 8.08 306.936 8.336C307.512 8.58133 307.938 8.96533 308.216 9.488C308.504 10 308.648 10.6613 308.648 11.472V16H305.992V14.512H306.088C306.034 14.8533 305.912 15.1467 305.72 15.392C305.528 15.6373 305.277 15.8293 304.968 15.968C304.658 16.1067 304.306 16.176 303.912 16.176ZM313.374 16.176C312.286 16.176 311.496 15.904 311.006 15.36C310.515 14.8053 310.27 13.9733 310.27 12.864V4.72H313.118V12.768C313.118 13.0027 313.15 13.2053 313.214 13.376C313.288 13.5467 313.4 13.6747 313.549 13.76C313.71 13.8453 313.907 13.888 314.141 13.888C314.248 13.888 314.355 13.8827 314.462 13.872C314.579 13.8613 314.691 13.8453 314.798 13.824L314.766 16C314.552 16.064 314.328 16.1067 314.094 16.128C313.87 16.16 313.63 16.176 313.374 16.176ZM320.042 16.176C319.082 16.176 318.25 16.0107 317.546 15.68C316.853 15.3387 316.319 14.8587 315.946 14.24C315.573 13.6213 315.386 12.8907 315.386 12.048C315.386 11.2373 315.562 10.528 315.914 9.92C316.277 9.30133 316.767 8.82133 317.386 8.48C318.015 8.128 318.73 7.952 319.53 7.952C320.33 7.952 321.018 8.11733 321.594 8.448C322.17 8.77867 322.613 9.25333 322.922 9.872C323.242 10.48 323.402 11.1947 323.402 12.016V12.64H317.77V11.296H321.322L321.066 11.504C321.066 10.928 320.943 10.5013 320.698 10.224C320.453 9.936 320.106 9.792 319.658 9.792C319.327 9.792 319.039 9.872 318.794 10.032C318.559 10.1813 318.378 10.4053 318.25 10.704C318.122 11.0027 318.058 11.376 318.058 11.824V11.968C318.058 12.4693 318.127 12.8747 318.266 13.184C318.415 13.4933 318.645 13.7227 318.954 13.872C319.263 14.0107 319.653 14.08 320.122 14.08C320.527 14.08 320.949 14.0213 321.386 13.904C321.834 13.776 322.229 13.5947 322.57 13.36L323.274 15.232C322.869 15.52 322.373 15.7493 321.786 15.92C321.199 16.0907 320.618 16.176 320.042 16.176ZM327.765 16.176C327.285 16.176 326.821 16.144 326.373 16.08C325.936 16.016 325.536 15.92 325.173 15.792C324.81 15.664 324.485 15.5093 324.197 15.328L324.853 13.488C325.12 13.6373 325.413 13.7707 325.733 13.888C326.064 14.0053 326.405 14.096 326.757 14.16C327.109 14.224 327.45 14.256 327.781 14.256C328.176 14.256 328.458 14.2027 328.629 14.096C328.8 13.9787 328.885 13.8293 328.885 13.648C328.885 13.488 328.826 13.3653 328.709 13.28C328.602 13.1947 328.448 13.136 328.245 13.104L326.469 12.816C325.808 12.6987 325.296 12.4587 324.933 12.096C324.57 11.7227 324.389 11.2373 324.389 10.64C324.389 10.0853 324.544 9.61067 324.853 9.216C325.173 8.81067 325.605 8.50133 326.149 8.288C326.704 8.064 327.338 7.952 328.053 7.952C328.437 7.952 328.816 7.984 329.189 8.048C329.562 8.10133 329.92 8.192 330.261 8.32C330.602 8.43733 330.912 8.59733 331.189 8.8L330.485 10.608C330.282 10.4587 330.042 10.3307 329.765 10.224C329.488 10.1173 329.2 10.032 328.901 9.968C328.613 9.89333 328.346 9.856 328.101 9.856C327.664 9.856 327.354 9.91467 327.173 10.032C326.992 10.1493 326.901 10.2987 326.901 10.48C326.901 10.6187 326.949 10.736 327.045 10.832C327.141 10.9173 327.29 10.976 327.493 11.008L329.269 11.312C329.952 11.4187 330.474 11.6533 330.837 12.016C331.21 12.368 331.397 12.848 331.397 13.456C331.397 14.032 331.248 14.5227 330.949 14.928C330.65 15.3333 330.229 15.6427 329.685 15.856C329.141 16.0693 328.501 16.176 327.765 16.176Z" fill="#ED7A45"/>
<path d="M249.847 32V23.54H251.095V32H249.847ZM254.823 32.108C254.183 32.108 253.703 31.928 253.383 31.568C253.071 31.2 252.915 30.672 252.915 29.984V23.54H254.127V29.912C254.127 30.168 254.163 30.388 254.235 30.572C254.307 30.748 254.415 30.88 254.559 30.968C254.703 31.056 254.883 31.1 255.099 31.1C255.195 31.1 255.287 31.096 255.375 31.088C255.463 31.08 255.547 31.064 255.627 31.04L255.603 32.012C255.467 32.044 255.335 32.068 255.207 32.084C255.079 32.1 254.951 32.108 254.823 32.108ZM256.474 24.788V23.528H257.89V24.788H256.474ZM256.582 32V26.144H257.794V32H256.582ZM259.524 32V26.144H260.7V27.392H260.568C260.672 27.104 260.816 26.86 261 26.66C261.184 26.46 261.404 26.308 261.66 26.204C261.924 26.092 262.212 26.036 262.524 26.036C263.012 26.036 263.408 26.152 263.712 26.384C264.016 26.616 264.224 26.972 264.336 27.452H264.168C264.32 27.012 264.58 26.668 264.948 26.42C265.316 26.164 265.744 26.036 266.232 26.036C266.68 26.036 267.048 26.124 267.336 26.3C267.624 26.468 267.84 26.728 267.984 27.08C268.128 27.424 268.2 27.86 268.2 28.388V32H266.988V28.448C266.988 27.952 266.9 27.588 266.724 27.356C266.556 27.124 266.276 27.008 265.884 27.008C265.596 27.008 265.344 27.076 265.128 27.212C264.912 27.348 264.744 27.548 264.624 27.812C264.512 28.068 264.456 28.372 264.456 28.724V32H263.244V28.448C263.244 27.952 263.16 27.588 262.992 27.356C262.824 27.124 262.544 27.008 262.152 27.008C261.856 27.008 261.6 27.076 261.384 27.212C261.176 27.348 261.016 27.548 260.904 27.812C260.792 28.068 260.736 28.372 260.736 28.724V32H259.524ZM269.787 24.788V23.528H271.203V24.788H269.787ZM269.895 32V26.144H271.107V32H269.895ZM275.309 32.108C274.581 32.108 274.033 31.92 273.665 31.544C273.305 31.168 273.125 30.624 273.125 29.912V27.08H271.985V26.144H273.125V24.38H274.337V26.144H276.149V27.08H274.337V29.816C274.337 30.24 274.425 30.56 274.601 30.776C274.785 30.992 275.081 31.1 275.489 31.1C275.609 31.1 275.729 31.084 275.849 31.052C275.977 31.02 276.101 30.988 276.221 30.956L276.413 31.868C276.293 31.94 276.125 31.996 275.909 32.036C275.701 32.084 275.501 32.108 275.309 32.108ZM279.068 32.108C278.66 32.108 278.292 32.028 277.964 31.868C277.644 31.708 277.392 31.492 277.208 31.22C277.024 30.948 276.932 30.64 276.932 30.296C276.932 29.864 277.04 29.524 277.256 29.276C277.48 29.02 277.844 28.84 278.348 28.736C278.86 28.624 279.548 28.568 280.412 28.568H280.976V29.312H280.424C279.992 29.312 279.628 29.328 279.332 29.36C279.036 29.392 278.8 29.444 278.624 29.516C278.448 29.58 278.32 29.672 278.24 29.792C278.168 29.912 278.132 30.056 278.132 30.224C278.132 30.528 278.236 30.776 278.444 30.968C278.652 31.152 278.94 31.244 279.308 31.244C279.604 31.244 279.864 31.176 280.088 31.04C280.312 30.896 280.488 30.704 280.616 30.464C280.752 30.224 280.82 29.948 280.82 29.636V28.256C280.82 27.8 280.724 27.472 280.532 27.272C280.34 27.072 280.024 26.972 279.584 26.972C279.248 26.972 278.912 27.024 278.576 27.128C278.24 27.224 277.896 27.38 277.544 27.596L277.172 26.744C277.38 26.6 277.62 26.476 277.892 26.372C278.164 26.268 278.448 26.188 278.744 26.132C279.048 26.068 279.34 26.036 279.62 26.036C280.156 26.036 280.596 26.12 280.94 26.288C281.292 26.456 281.552 26.712 281.72 27.056C281.888 27.4 281.972 27.844 281.972 28.388V32H280.832V30.692H280.94C280.876 30.988 280.756 31.244 280.58 31.46C280.412 31.668 280.2 31.828 279.944 31.94C279.688 32.052 279.396 32.108 279.068 32.108ZM285.873 32.108C285.361 32.108 284.909 31.988 284.517 31.748C284.133 31.5 283.833 31.148 283.617 30.692C283.401 30.228 283.293 29.688 283.293 29.072C283.293 28.44 283.401 27.9 283.617 27.452C283.833 27.004 284.133 26.656 284.517 26.408C284.909 26.16 285.361 26.036 285.873 26.036C286.385 26.036 286.825 26.164 287.193 26.42C287.569 26.668 287.821 27.004 287.949 27.428H287.817V23.54H289.029V32H287.841V30.68H287.961C287.833 31.112 287.581 31.46 287.205 31.724C286.837 31.98 286.393 32.108 285.873 32.108ZM286.185 31.172C286.681 31.172 287.081 30.992 287.385 30.632C287.689 30.272 287.841 29.752 287.841 29.072C287.841 28.384 287.689 27.864 287.385 27.512C287.081 27.16 286.681 26.984 286.185 26.984C285.681 26.984 285.277 27.16 284.973 27.512C284.669 27.864 284.517 28.384 284.517 29.072C284.517 29.752 284.669 30.272 284.973 30.632C285.277 30.992 285.681 31.172 286.185 31.172ZM292.603 32.108C292.195 32.108 291.827 32.028 291.499 31.868C291.179 31.708 290.927 31.492 290.743 31.22C290.559 30.948 290.467 30.64 290.467 30.296C290.467 29.864 290.575 29.524 290.791 29.276C291.015 29.02 291.379 28.84 291.883 28.736C292.395 28.624 293.083 28.568 293.947 28.568H294.511V29.312H293.959C293.527 29.312 293.163 29.328 292.867 29.36C292.571 29.392 292.335 29.444 292.159 29.516C291.983 29.58 291.855 29.672 291.775 29.792C291.703 29.912 291.667 30.056 291.667 30.224C291.667 30.528 291.771 30.776 291.979 30.968C292.187 31.152 292.475 31.244 292.843 31.244C293.139 31.244 293.399 31.176 293.623 31.04C293.847 30.896 294.023 30.704 294.151 30.464C294.287 30.224 294.355 29.948 294.355 29.636V28.256C294.355 27.8 294.259 27.472 294.067 27.272C293.875 27.072 293.559 26.972 293.119 26.972C292.783 26.972 292.447 27.024 292.111 27.128C291.775 27.224 291.431 27.38 291.079 27.596L290.707 26.744C290.915 26.6 291.155 26.476 291.427 26.372C291.699 26.268 291.983 26.188 292.279 26.132C292.583 26.068 292.875 26.036 293.155 26.036C293.691 26.036 294.131 26.12 294.475 26.288C294.827 26.456 295.087 26.712 295.255 27.056C295.423 27.4 295.507 27.844 295.507 28.388V32H294.367V30.692H294.475C294.411 30.988 294.291 31.244 294.115 31.46C293.947 31.668 293.735 31.828 293.479 31.94C293.223 32.052 292.931 32.108 292.603 32.108ZM299.228 32.108C298.916 32.108 298.612 32.08 298.316 32.024C298.02 31.968 297.748 31.888 297.5 31.784C297.252 31.68 297.032 31.552 296.84 31.4L297.188 30.584C297.388 30.72 297.6 30.84 297.824 30.944C298.048 31.04 298.28 31.112 298.52 31.16C298.768 31.208 299.008 31.232 299.24 31.232C299.664 31.232 299.984 31.156 300.2 31.004C300.416 30.852 300.524 30.648 300.524 30.392C300.524 30.184 300.452 30.024 300.308 29.912C300.164 29.792 299.948 29.7 299.66 29.636L298.52 29.408C298.024 29.304 297.648 29.12 297.392 28.856C297.136 28.592 297.008 28.256 297.008 27.848C297.008 27.48 297.108 27.16 297.308 26.888C297.508 26.616 297.788 26.408 298.148 26.264C298.508 26.112 298.924 26.036 299.396 26.036C299.668 26.036 299.932 26.064 300.188 26.12C300.444 26.176 300.684 26.256 300.908 26.36C301.14 26.464 301.336 26.596 301.496 26.756L301.148 27.572C300.996 27.436 300.82 27.32 300.62 27.224C300.428 27.128 300.228 27.056 300.02 27.008C299.812 26.952 299.604 26.924 299.396 26.924C298.972 26.924 298.652 27.004 298.436 27.164C298.228 27.316 298.124 27.524 298.124 27.788C298.124 27.988 298.188 28.152 298.316 28.28C298.444 28.408 298.644 28.5 298.916 28.556L300.056 28.784C300.576 28.888 300.968 29.064 301.232 29.312C301.504 29.56 301.64 29.896 301.64 30.32C301.64 30.688 301.54 31.008 301.34 31.28C301.14 31.552 300.856 31.76 300.488 31.904C300.128 32.04 299.708 32.108 299.228 32.108Z" fill="#282828"/>
<path d="M394.908 16.176C393.66 16.176 392.588 15.936 391.692 15.456C390.796 14.976 390.108 14.2987 389.628 13.424C389.158 12.5493 388.924 11.5253 388.924 10.352C388.924 9.17867 389.158 8.16 389.628 7.296C390.108 6.42133 390.796 5.744 391.692 5.264C392.588 4.784 393.66 4.544 394.908 4.544C395.654 4.544 396.374 4.656 397.068 4.88C397.761 5.104 398.321 5.408 398.748 5.792L397.868 8.112C397.398 7.77067 396.929 7.52 396.46 7.36C395.99 7.18933 395.51 7.104 395.02 7.104C394.028 7.104 393.281 7.38667 392.78 7.952C392.278 8.50667 392.028 9.30667 392.028 10.352C392.028 11.408 392.278 12.2187 392.78 12.784C393.281 13.3387 394.028 13.616 395.02 13.616C395.51 13.616 395.99 13.536 396.46 13.376C396.929 13.2053 397.398 12.9493 397.868 12.608L398.748 14.928C398.321 15.3013 397.761 15.6053 397.068 15.84C396.374 16.064 395.654 16.176 394.908 16.176ZM403.425 16.176C402.551 16.176 401.788 16.0107 401.137 15.68C400.487 15.3493 399.98 14.8747 399.617 14.256C399.255 13.6373 399.073 12.9067 399.073 12.064C399.073 11.2107 399.255 10.48 399.617 9.872C399.98 9.25333 400.487 8.77867 401.137 8.448C401.788 8.11733 402.551 7.952 403.425 7.952C404.3 7.952 405.063 8.11733 405.713 8.448C406.364 8.77867 406.865 9.25333 407.217 9.872C407.58 10.48 407.761 11.2107 407.761 12.064C407.761 12.9067 407.58 13.6373 407.217 14.256C406.865 14.8747 406.364 15.3493 405.713 15.68C405.063 16.0107 404.3 16.176 403.425 16.176ZM403.425 14.08C403.852 14.08 404.204 13.92 404.481 13.6C404.759 13.28 404.897 12.768 404.897 12.064C404.897 11.3493 404.759 10.8373 404.481 10.528C404.204 10.208 403.852 10.048 403.425 10.048C402.988 10.048 402.631 10.208 402.353 10.528C402.076 10.8373 401.937 11.3493 401.937 12.064C401.937 12.768 402.076 13.28 402.353 13.6C402.631 13.92 402.988 14.08 403.425 14.08ZM414.25 16.176C413.642 16.176 413.098 16.032 412.618 15.744C412.149 15.4453 411.84 15.056 411.69 14.576H411.834V16H409.066V4.72H411.914V9.44H411.722C411.882 9.00267 412.197 8.64533 412.666 8.368C413.136 8.09067 413.664 7.952 414.25 7.952C414.933 7.952 415.53 8.11733 416.042 8.448C416.565 8.77867 416.97 9.248 417.258 9.856C417.546 10.464 417.69 11.2 417.69 12.064C417.69 12.9067 417.546 13.6373 417.258 14.256C416.97 14.8747 416.565 15.3493 416.042 15.68C415.53 16.0107 414.933 16.176 414.25 16.176ZM413.354 14.08C413.781 14.08 414.133 13.92 414.41 13.6C414.688 13.28 414.826 12.768 414.826 12.064C414.826 11.3493 414.688 10.8373 414.41 10.528C414.133 10.208 413.781 10.048 413.354 10.048C412.917 10.048 412.56 10.208 412.282 10.528C412.005 10.8373 411.866 11.3493 411.866 12.064C411.866 12.768 412.005 13.28 412.282 13.6C412.56 13.92 412.917 14.08 413.354 14.08ZM423.276 16.176C422.316 16.176 421.484 16.0107 420.78 15.68C420.087 15.3387 419.554 14.8587 419.18 14.24C418.807 13.6213 418.62 12.8907 418.62 12.048C418.62 11.2373 418.796 10.528 419.148 9.92C419.511 9.30133 420.002 8.82133 420.62 8.48C421.25 8.128 421.964 7.952 422.764 7.952C423.564 7.952 424.252 8.11733 424.828 8.448C425.404 8.77867 425.847 9.25333 426.156 9.872C426.476 10.48 426.636 11.1947 426.636 12.016V12.64H421.004V11.296H424.556L424.3 11.504C424.3 10.928 424.178 10.5013 423.932 10.224C423.687 9.936 423.34 9.792 422.892 9.792C422.562 9.792 422.274 9.872 422.028 10.032C421.794 10.1813 421.612 10.4053 421.484 10.704C421.356 11.0027 421.292 11.376 421.292 11.824V11.968C421.292 12.4693 421.362 12.8747 421.5 13.184C421.65 13.4933 421.879 13.7227 422.188 13.872C422.498 14.0107 422.887 14.08 423.356 14.08C423.762 14.08 424.183 14.0213 424.62 13.904C425.068 13.776 425.463 13.5947 425.804 13.36L426.508 15.232C426.103 15.52 425.607 15.7493 425.02 15.92C424.434 16.0907 423.852 16.176 423.276 16.176ZM427.863 16V8.128H430.631V10.064H430.471C430.578 9.424 430.845 8.928 431.271 8.576C431.709 8.21333 432.279 8.01067 432.983 7.968L433.767 7.904L433.927 10.304L432.375 10.448C431.81 10.5013 431.399 10.6613 431.143 10.928C430.887 11.184 430.759 11.568 430.759 12.08V16H427.863ZM439.398 16.176C438.203 16.176 437.318 15.8987 436.742 15.344C436.166 14.7893 435.878 13.952 435.878 12.832V10.224H434.405V8.128H435.878V5.84H438.726V8.128H440.966V10.224H438.726V12.736C438.726 13.1307 438.816 13.424 438.998 13.616C439.19 13.7973 439.488 13.888 439.894 13.888C440.022 13.888 440.16 13.872 440.31 13.84C440.47 13.808 440.646 13.7707 440.838 13.728L441.222 15.776C440.976 15.904 440.688 16 440.358 16.064C440.038 16.1387 439.718 16.176 439.398 16.176ZM445.026 16.176C444.343 16.176 443.783 16.0533 443.346 15.808C442.909 15.552 442.578 15.1733 442.354 14.672C442.141 14.1707 442.034 13.536 442.034 12.768V8.128H444.882V12.848C444.882 13.104 444.914 13.3173 444.978 13.488C445.053 13.6587 445.165 13.7867 445.314 13.872C445.463 13.9573 445.65 14 445.874 14C446.13 14 446.354 13.9413 446.546 13.824C446.749 13.696 446.903 13.52 447.01 13.296C447.127 13.0613 447.186 12.7893 447.186 12.48V8.128H450.034V16H447.25V14.56H447.506C447.271 15.0827 446.941 15.4827 446.514 15.76C446.098 16.0373 445.602 16.176 445.026 16.176ZM451.691 16V8.128H454.459V10.064H454.299C454.406 9.424 454.673 8.928 455.099 8.576C455.537 8.21333 456.107 8.01067 456.811 7.968L457.595 7.904L457.755 10.304L456.203 10.448C455.638 10.5013 455.227 10.6613 454.971 10.928C454.715 11.184 454.587 11.568 454.587 12.08V16H451.691ZM461.287 16.176C460.679 16.176 460.14 16.064 459.671 15.84C459.212 15.616 458.849 15.312 458.583 14.928C458.327 14.5333 458.199 14.0853 458.199 13.584C458.199 13.008 458.348 12.5547 458.647 12.224C458.945 11.8933 459.425 11.6587 460.087 11.52C460.748 11.3707 461.628 11.296 462.727 11.296H463.607V12.64H462.727C462.417 12.64 462.145 12.656 461.911 12.688C461.687 12.72 461.5 12.7733 461.351 12.848C461.201 12.912 461.089 12.9973 461.015 13.104C460.94 13.2107 460.903 13.3333 460.903 13.472C460.903 13.7173 460.988 13.92 461.159 14.08C461.34 14.24 461.596 14.32 461.927 14.32C462.193 14.32 462.428 14.2613 462.631 14.144C462.844 14.0267 463.015 13.8667 463.143 13.664C463.271 13.4507 463.335 13.2053 463.335 12.928V11.072C463.335 10.688 463.233 10.416 463.031 10.256C462.839 10.096 462.503 10.016 462.023 10.016C461.617 10.016 461.169 10.08 460.679 10.208C460.188 10.336 459.708 10.5333 459.239 10.8L458.519 8.928C458.796 8.736 459.137 8.56533 459.543 8.416C459.959 8.26667 460.396 8.15467 460.855 8.08C461.324 7.99467 461.756 7.952 462.151 7.952C463.025 7.952 463.745 8.08 464.311 8.336C464.887 8.58133 465.313 8.96533 465.591 9.488C465.879 10 466.023 10.6613 466.023 11.472V16H463.367V14.512H463.463C463.409 14.8533 463.287 15.1467 463.095 15.392C462.903 15.6373 462.652 15.8293 462.343 15.968C462.033 16.1067 461.681 16.176 461.287 16.176Z" fill="#ED7A45"/>
<path d="M404.636 32V23.54H405.584L410.732 30.332H410.432V23.54H411.584V32H410.66L405.512 25.208H405.788V32H404.636ZM415.294 32.108C414.886 32.108 414.518 32.028 414.19 31.868C413.87 31.708 413.618 31.492 413.434 31.22C413.25 30.948 413.158 30.64 413.158 30.296C413.158 29.864 413.266 29.524 413.482 29.276C413.706 29.02 414.07 28.84 414.574 28.736C415.086 28.624 415.774 28.568 416.638 28.568H417.202V29.312H416.65C416.218 29.312 415.854 29.328 415.558 29.36C415.262 29.392 415.026 29.444 414.85 29.516C414.674 29.58 414.546 29.672 414.466 29.792C414.394 29.912 414.358 30.056 414.358 30.224C414.358 30.528 414.462 30.776 414.67 30.968C414.878 31.152 415.166 31.244 415.534 31.244C415.83 31.244 416.09 31.176 416.314 31.04C416.538 30.896 416.714 30.704 416.842 30.464C416.978 30.224 417.046 29.948 417.046 29.636V28.256C417.046 27.8 416.95 27.472 416.758 27.272C416.566 27.072 416.25 26.972 415.81 26.972C415.474 26.972 415.138 27.024 414.802 27.128C414.466 27.224 414.122 27.38 413.77 27.596L413.398 26.744C413.606 26.6 413.846 26.476 414.118 26.372C414.39 26.268 414.674 26.188 414.97 26.132C415.274 26.068 415.566 26.036 415.846 26.036C416.382 26.036 416.822 26.12 417.166 26.288C417.518 26.456 417.778 26.712 417.946 27.056C418.114 27.4 418.198 27.844 418.198 28.388V32H417.058V30.692H417.166C417.102 30.988 416.982 31.244 416.806 31.46C416.638 31.668 416.426 31.828 416.17 31.94C415.914 32.052 415.622 32.108 415.294 32.108ZM422.448 32.108C421.848 32.108 421.328 31.984 420.888 31.736C420.456 31.48 420.12 31.124 419.88 30.668C419.64 30.204 419.52 29.66 419.52 29.036C419.52 28.42 419.64 27.888 419.88 27.44C420.12 26.992 420.456 26.648 420.888 26.408C421.328 26.16 421.848 26.036 422.448 26.036C422.816 26.036 423.18 26.1 423.54 26.228C423.9 26.348 424.196 26.524 424.428 26.756L424.044 27.608C423.828 27.4 423.584 27.248 423.312 27.152C423.04 27.048 422.784 26.996 422.544 26.996C421.976 26.996 421.536 27.176 421.224 27.536C420.92 27.888 420.768 28.392 420.768 29.048C420.768 29.704 420.92 30.22 421.224 30.596C421.536 30.964 421.976 31.148 422.544 31.148C422.784 31.148 423.04 31.1 423.312 31.004C423.584 30.9 423.828 30.744 424.044 30.536L424.428 31.4C424.196 31.616 423.896 31.788 423.528 31.916C423.168 32.044 422.808 32.108 422.448 32.108ZM425.361 24.788V23.528H426.777V24.788H425.361ZM425.469 32V26.144H426.681V32H425.469ZM430.931 32.108C430.339 32.108 429.827 31.984 429.395 31.736C428.971 31.488 428.639 31.136 428.399 30.68C428.159 30.224 428.039 29.688 428.039 29.072C428.039 28.448 428.159 27.912 428.399 27.464C428.639 27.008 428.971 26.656 429.395 26.408C429.827 26.16 430.339 26.036 430.931 26.036C431.515 26.036 432.019 26.16 432.443 26.408C432.875 26.656 433.211 27.008 433.451 27.464C433.691 27.92 433.811 28.456 433.811 29.072C433.811 29.688 433.691 30.224 433.451 30.68C433.211 31.136 432.875 31.488 432.443 31.736C432.019 31.984 431.515 32.108 430.931 32.108ZM430.919 31.172C431.423 31.172 431.827 30.992 432.131 30.632C432.435 30.272 432.587 29.752 432.587 29.072C432.587 28.384 432.435 27.864 432.131 27.512C431.827 27.16 431.423 26.984 430.919 26.984C430.423 26.984 430.023 27.16 429.719 27.512C429.415 27.864 429.263 28.384 429.263 29.072C429.263 29.752 429.415 30.272 429.719 30.632C430.023 30.992 430.423 31.172 430.919 31.172ZM435.172 32V26.144H436.348V27.392H436.216C436.392 26.944 436.668 26.608 437.044 26.384C437.42 26.152 437.852 26.036 438.34 26.036C438.804 26.036 439.188 26.124 439.492 26.3C439.804 26.468 440.036 26.728 440.188 27.08C440.34 27.424 440.416 27.86 440.416 28.388V32H439.204V28.46C439.204 28.124 439.16 27.852 439.072 27.644C438.984 27.428 438.852 27.268 438.676 27.164C438.5 27.06 438.272 27.008 437.992 27.008C437.672 27.008 437.388 27.076 437.14 27.212C436.9 27.348 436.712 27.544 436.576 27.8C436.448 28.056 436.384 28.352 436.384 28.688V32H435.172ZM443.958 32.108C443.55 32.108 443.182 32.028 442.854 31.868C442.534 31.708 442.282 31.492 442.098 31.22C441.914 30.948 441.822 30.64 441.822 30.296C441.822 29.864 441.93 29.524 442.146 29.276C442.37 29.02 442.734 28.84 443.238 28.736C443.75 28.624 444.438 28.568 445.302 28.568H445.866V29.312H445.314C444.882 29.312 444.518 29.328 444.222 29.36C443.926 29.392 443.69 29.444 443.514 29.516C443.338 29.58 443.21 29.672 443.13 29.792C443.058 29.912 443.022 30.056 443.022 30.224C443.022 30.528 443.126 30.776 443.334 30.968C443.542 31.152 443.83 31.244 444.198 31.244C444.494 31.244 444.754 31.176 444.978 31.04C445.202 30.896 445.378 30.704 445.506 30.464C445.642 30.224 445.71 29.948 445.71 29.636V28.256C445.71 27.8 445.614 27.472 445.422 27.272C445.23 27.072 444.914 26.972 444.474 26.972C444.138 26.972 443.802 27.024 443.466 27.128C443.13 27.224 442.786 27.38 442.434 27.596L442.062 26.744C442.27 26.6 442.51 26.476 442.782 26.372C443.054 26.268 443.338 26.188 443.634 26.132C443.938 26.068 444.23 26.036 444.51 26.036C445.046 26.036 445.486 26.12 445.83 26.288C446.182 26.456 446.442 26.712 446.61 27.056C446.778 27.4 446.862 27.844 446.862 28.388V32H445.722V30.692H445.83C445.766 30.988 445.646 31.244 445.47 31.46C445.302 31.668 445.09 31.828 444.834 31.94C444.578 32.052 444.286 32.108 443.958 32.108ZM450.44 32.108C449.8 32.108 449.32 31.928 449 31.568C448.688 31.2 448.532 30.672 448.532 29.984V23.54H449.744V29.912C449.744 30.168 449.78 30.388 449.852 30.572C449.924 30.748 450.032 30.88 450.176 30.968C450.32 31.056 450.5 31.1 450.716 31.1C450.812 31.1 450.904 31.096 450.992 31.088C451.08 31.08 451.164 31.064 451.244 31.04L451.22 32.012C451.084 32.044 450.952 32.068 450.824 32.084C450.696 32.1 450.568 32.108 450.44 32.108Z" fill="#282828"/>
<path d="M524.134 16V4.72H526.582L530.47 11.68H529.91L533.782 4.72H536.166V16H533.51V9.296H533.846L530.934 14.336H529.334L526.422 9.28H526.79V16H524.134ZM542.339 16.176C541.379 16.176 540.547 16.0107 539.843 15.68C539.149 15.3387 538.616 14.8587 538.243 14.24C537.869 13.6213 537.683 12.8907 537.683 12.048C537.683 11.2373 537.859 10.528 538.211 9.92C538.573 9.30133 539.064 8.82133 539.683 8.48C540.312 8.128 541.027 7.952 541.827 7.952C542.627 7.952 543.315 8.11733 543.891 8.448C544.467 8.77867 544.909 9.25333 545.219 9.872C545.539 10.48 545.699 11.1947 545.699 12.016V12.64H540.067V11.296H543.619L543.363 11.504C543.363 10.928 543.24 10.5013 542.995 10.224C542.749 9.936 542.403 9.792 541.955 9.792C541.624 9.792 541.336 9.872 541.091 10.032C540.856 10.1813 540.675 10.4053 540.547 10.704C540.419 11.0027 540.355 11.376 540.355 11.824V11.968C540.355 12.4693 540.424 12.8747 540.563 13.184C540.712 13.4933 540.941 13.7227 541.251 13.872C541.56 14.0107 541.949 14.08 542.419 14.08C542.824 14.08 543.245 14.0213 543.683 13.904C544.131 13.776 544.525 13.5947 544.867 13.36L545.571 15.232C545.165 15.52 544.669 15.7493 544.083 15.92C543.496 16.0907 542.915 16.176 542.339 16.176ZM546.91 6.768V4.192H549.918V6.768H546.91ZM545.47 19.088L545.278 17.088L546.062 16.992C546.392 16.9493 546.632 16.848 546.782 16.688C546.931 16.528 547.006 16.2827 547.006 15.952V8.128H549.854V15.552C549.854 16.1493 549.79 16.656 549.662 17.072C549.534 17.4987 549.326 17.8453 549.038 18.112C548.76 18.3893 548.387 18.5973 547.918 18.736C547.448 18.8853 546.867 18.9867 546.174 19.04L545.47 19.088ZM555.504 16.176C554.629 16.176 553.866 16.0107 553.216 15.68C552.565 15.3493 552.058 14.8747 551.696 14.256C551.333 13.6373 551.152 12.9067 551.152 12.064C551.152 11.2107 551.333 10.48 551.696 9.872C552.058 9.25333 552.565 8.77867 553.216 8.448C553.866 8.11733 554.629 7.952 555.504 7.952C556.378 7.952 557.141 8.11733 557.792 8.448C558.442 8.77867 558.944 9.25333 559.296 9.872C559.658 10.48 559.84 11.2107 559.84 12.064C559.84 12.9067 559.658 13.6373 559.296 14.256C558.944 14.8747 558.442 15.3493 557.792 15.68C557.141 16.0107 556.378 16.176 555.504 16.176ZM555.504 14.08C555.93 14.08 556.282 13.92 556.56 13.6C556.837 13.28 556.976 12.768 556.976 12.064C556.976 11.3493 556.837 10.8373 556.56 10.528C556.282 10.208 555.93 10.048 555.504 10.048C555.066 10.048 554.709 10.208 554.432 10.528C554.154 10.8373 554.016 11.3493 554.016 12.064C554.016 12.768 554.154 13.28 554.432 13.6C554.709 13.92 555.066 14.08 555.504 14.08ZM561.145 16V8.128H563.913V10.064H563.753C563.859 9.424 564.126 8.928 564.553 8.576C564.99 8.21333 565.561 8.01067 566.265 7.968L567.049 7.904L567.209 10.304L565.657 10.448C565.091 10.5013 564.681 10.6613 564.424 10.928C564.169 11.184 564.041 11.568 564.041 12.08V16H561.145ZM572.229 16.176C571.269 16.176 570.437 16.0107 569.733 15.68C569.04 15.3387 568.507 14.8587 568.133 14.24C567.76 13.6213 567.573 12.8907 567.573 12.048C567.573 11.2373 567.749 10.528 568.101 9.92C568.464 9.30133 568.955 8.82133 569.573 8.48C570.203 8.128 570.917 7.952 571.717 7.952C572.517 7.952 573.205 8.11733 573.781 8.448C574.357 8.77867 574.8 9.25333 575.109 9.872C575.429 10.48 575.589 11.1947 575.589 12.016V12.64H569.957V11.296H573.509L573.253 11.504C573.253 10.928 573.131 10.5013 572.885 10.224C572.64 9.936 572.293 9.792 571.845 9.792C571.515 9.792 571.227 9.872 570.981 10.032C570.747 10.1813 570.565 10.4053 570.437 10.704C570.309 11.0027 570.245 11.376 570.245 11.824V11.968C570.245 12.4693 570.315 12.8747 570.453 13.184C570.603 13.4933 570.832 13.7227 571.141 13.872C571.451 14.0107 571.84 14.08 572.309 14.08C572.715 14.08 573.136 14.0213 573.573 13.904C574.021 13.776 574.416 13.5947 574.757 13.36L575.461 15.232C575.056 15.52 574.56 15.7493 573.973 15.92C573.387 16.0907 572.805 16.176 572.229 16.176ZM579.952 16.176C579.472 16.176 579.008 16.144 578.56 16.08C578.123 16.016 577.723 15.92 577.36 15.792C576.998 15.664 576.672 15.5093 576.384 15.328L577.04 13.488C577.307 13.6373 577.6 13.7707 577.92 13.888C578.251 14.0053 578.592 14.096 578.944 14.16C579.296 14.224 579.638 14.256 579.968 14.256C580.363 14.256 580.646 14.2027 580.816 14.096C580.987 13.9787 581.072 13.8293 581.072 13.648C581.072 13.488 581.014 13.3653 580.896 13.28C580.79 13.1947 580.635 13.136 580.432 13.104L578.656 12.816C577.995 12.6987 577.483 12.4587 577.12 12.096C576.758 11.7227 576.576 11.2373 576.576 10.64C576.576 10.0853 576.731 9.61067 577.04 9.216C577.36 8.81067 577.792 8.50133 578.336 8.288C578.891 8.064 579.526 7.952 580.24 7.952C580.624 7.952 581.003 7.984 581.376 8.048C581.75 8.10133 582.107 8.192 582.448 8.32C582.79 8.43733 583.099 8.59733 583.376 8.8L582.672 10.608C582.47 10.4587 582.23 10.3307 581.952 10.224C581.675 10.1173 581.387 10.032 581.088 9.968C580.8 9.89333 580.534 9.856 580.288 9.856C579.851 9.856 579.542 9.91467 579.36 10.032C579.179 10.1493 579.088 10.2987 579.088 10.48C579.088 10.6187 579.136 10.736 579.232 10.832C579.328 10.9173 579.478 10.976 579.68 11.008L581.456 11.312C582.139 11.4187 582.662 11.6533 583.024 12.016C583.398 12.368 583.584 12.848 583.584 13.456C583.584 14.032 583.435 14.5227 583.136 14.928C582.838 15.3333 582.416 15.6427 581.872 15.856C581.328 16.0693 580.688 16.176 579.952 16.176Z" fill="#ED7A45"/>
<path d="M534.714 32V23.54H538.218C538.834 23.54 539.354 23.644 539.778 23.852C540.202 24.052 540.522 24.344 540.738 24.728C540.962 25.112 541.074 25.576 541.074 26.12C541.074 26.664 540.962 27.132 540.738 27.524C540.522 27.908 540.202 28.204 539.778 28.412C539.354 28.612 538.834 28.712 538.218 28.712H535.962V32H534.714ZM535.962 27.716H538.038C538.638 27.716 539.09 27.584 539.394 27.32C539.706 27.048 539.862 26.648 539.862 26.12C539.862 25.6 539.706 25.208 539.394 24.944C539.09 24.672 538.638 24.536 538.038 24.536H535.962V27.716ZM542.165 32V26.144H543.341V27.548H543.221C543.349 27.068 543.577 26.704 543.905 26.456C544.241 26.208 544.685 26.064 545.237 26.024L545.633 26L545.717 27.032L544.985 27.104C544.465 27.152 544.069 27.316 543.797 27.596C543.525 27.876 543.389 28.26 543.389 28.748V32H542.165ZM549.307 32.108C548.667 32.108 548.115 31.988 547.651 31.748C547.195 31.5 546.839 31.152 546.583 30.704C546.335 30.248 546.211 29.708 546.211 29.084C546.211 28.476 546.335 27.944 546.583 27.488C546.831 27.032 547.171 26.676 547.603 26.42C548.035 26.164 548.527 26.036 549.079 26.036C549.623 26.036 550.087 26.156 550.471 26.396C550.863 26.628 551.163 26.96 551.371 27.392C551.579 27.824 551.683 28.34 551.683 28.94V29.348H547.171V28.604H550.867L550.663 28.772C550.663 28.172 550.531 27.708 550.267 27.38C550.003 27.052 549.623 26.888 549.127 26.888C548.751 26.888 548.431 26.976 548.167 27.152C547.911 27.328 547.715 27.572 547.579 27.884C547.443 28.196 547.375 28.56 547.375 28.976V29.048C547.375 29.512 547.447 29.904 547.591 30.224C547.743 30.536 547.963 30.772 548.251 30.932C548.539 31.092 548.895 31.172 549.319 31.172C549.655 31.172 549.983 31.12 550.303 31.016C550.631 30.904 550.939 30.732 551.227 30.5L551.587 31.34C551.323 31.58 550.983 31.768 550.567 31.904C550.151 32.04 549.731 32.108 549.307 32.108ZM555.584 32.108C554.984 32.108 554.464 31.984 554.024 31.736C553.592 31.48 553.256 31.124 553.016 30.668C552.776 30.204 552.656 29.66 552.656 29.036C552.656 28.42 552.776 27.888 553.016 27.44C553.256 26.992 553.592 26.648 554.024 26.408C554.464 26.16 554.984 26.036 555.584 26.036C555.952 26.036 556.316 26.1 556.676 26.228C557.036 26.348 557.332 26.524 557.564 26.756L557.18 27.608C556.964 27.4 556.72 27.248 556.448 27.152C556.176 27.048 555.92 26.996 555.68 26.996C555.112 26.996 554.672 27.176 554.36 27.536C554.056 27.888 553.904 28.392 553.904 29.048C553.904 29.704 554.056 30.22 554.36 30.596C554.672 30.964 555.112 31.148 555.68 31.148C555.92 31.148 556.176 31.1 556.448 31.004C556.72 30.9 556.964 30.744 557.18 30.536L557.564 31.4C557.332 31.616 557.032 31.788 556.664 31.916C556.304 32.044 555.944 32.108 555.584 32.108ZM558.498 24.788V23.528H559.914V24.788H558.498ZM558.606 32V26.144H559.818V32H558.606ZM564.068 32.108C563.476 32.108 562.964 31.984 562.532 31.736C562.108 31.488 561.776 31.136 561.536 30.68C561.296 30.224 561.176 29.688 561.176 29.072C561.176 28.448 561.296 27.912 561.536 27.464C561.776 27.008 562.108 26.656 562.532 26.408C562.964 26.16 563.476 26.036 564.068 26.036C564.652 26.036 565.156 26.16 565.58 26.408C566.012 26.656 566.348 27.008 566.588 27.464C566.828 27.92 566.948 28.456 566.948 29.072C566.948 29.688 566.828 30.224 566.588 30.68C566.348 31.136 566.012 31.488 565.58 31.736C565.156 31.984 564.652 32.108 564.068 32.108ZM564.056 31.172C564.56 31.172 564.964 30.992 565.268 30.632C565.572 30.272 565.724 29.752 565.724 29.072C565.724 28.384 565.572 27.864 565.268 27.512C564.964 27.16 564.56 26.984 564.056 26.984C563.56 26.984 563.16 27.16 562.856 27.512C562.552 27.864 562.4 28.384 562.4 29.072C562.4 29.752 562.552 30.272 562.856 30.632C563.16 30.992 563.56 31.172 564.056 31.172ZM570.361 32.108C570.049 32.108 569.745 32.08 569.449 32.024C569.153 31.968 568.881 31.888 568.633 31.784C568.385 31.68 568.165 31.552 567.973 31.4L568.321 30.584C568.521 30.72 568.733 30.84 568.957 30.944C569.181 31.04 569.413 31.112 569.653 31.16C569.901 31.208 570.141 31.232 570.373 31.232C570.797 31.232 571.117 31.156 571.333 31.004C571.549 30.852 571.657 30.648 571.657 30.392C571.657 30.184 571.585 30.024 571.441 29.912C571.297 29.792 571.081 29.7 570.793 29.636L569.653 29.408C569.157 29.304 568.781 29.12 568.525 28.856C568.269 28.592 568.141 28.256 568.141 27.848C568.141 27.48 568.241 27.16 568.441 26.888C568.641 26.616 568.921 26.408 569.281 26.264C569.641 26.112 570.057 26.036 570.529 26.036C570.801 26.036 571.065 26.064 571.321 26.12C571.577 26.176 571.817 26.256 572.041 26.36C572.273 26.464 572.469 26.596 572.629 26.756L572.281 27.572C572.129 27.436 571.953 27.32 571.753 27.224C571.561 27.128 571.361 27.056 571.153 27.008C570.945 26.952 570.737 26.924 570.529 26.924C570.105 26.924 569.785 27.004 569.569 27.164C569.361 27.316 569.257 27.524 569.257 27.788C569.257 27.988 569.321 28.152 569.449 28.28C569.577 28.408 569.777 28.5 570.049 28.556L571.189 28.784C571.709 28.888 572.101 29.064 572.365 29.312C572.637 29.56 572.773 29.896 572.773 30.32C572.773 30.688 572.673 31.008 572.473 31.28C572.273 31.552 571.989 31.76 571.621 31.904C571.261 32.04 570.841 32.108 570.361 32.108Z" fill="#282828"/>
<path d="M645.591 16.176C645.004 16.176 644.428 16.128 643.863 16.032C643.298 15.936 642.775 15.7973 642.295 15.616C641.815 15.4347 641.399 15.2213 641.047 14.976L641.863 12.688C642.194 12.9013 642.562 13.088 642.967 13.248C643.372 13.408 643.799 13.536 644.247 13.632C644.695 13.7173 645.143 13.76 645.591 13.76C646.295 13.76 646.786 13.6693 647.063 13.488C647.351 13.296 647.495 13.0613 647.495 12.784C647.495 12.6133 647.452 12.4693 647.367 12.352C647.282 12.2347 647.138 12.1333 646.935 12.048C646.743 11.952 646.482 11.872 646.151 11.808L644.279 11.408C643.255 11.1947 642.492 10.8213 641.991 10.288C641.49 9.75467 641.239 9.06667 641.239 8.224C641.239 7.47733 641.436 6.832 641.831 6.288C642.236 5.73333 642.796 5.30667 643.511 5.008C644.236 4.69867 645.068 4.544 646.007 4.544C646.53 4.544 647.031 4.592 647.511 4.688C648.002 4.784 648.455 4.928 648.871 5.12C649.287 5.30133 649.639 5.51467 649.927 5.76L649.111 7.904C648.706 7.60533 648.231 7.376 647.687 7.216C647.154 7.04533 646.583 6.96 645.975 6.96C645.58 6.96 645.244 7.008 644.967 7.104C644.69 7.18933 644.476 7.31733 644.327 7.488C644.188 7.65867 644.119 7.856 644.119 8.08C644.119 8.304 644.21 8.496 644.391 8.656C644.583 8.80533 644.93 8.93333 645.431 9.04L647.287 9.44C648.322 9.664 649.095 10.032 649.607 10.544C650.119 11.056 650.375 11.7227 650.375 12.544C650.375 13.2693 650.178 13.9093 649.783 14.464C649.388 15.008 648.834 15.4293 648.119 15.728C647.404 16.0267 646.562 16.176 645.591 16.176ZM651.549 6.768V4.192H654.541V6.768H651.549ZM651.629 16V8.128H654.477V16H651.629ZM656.129 16V8.128H658.897V9.504H658.721C658.977 9.00267 659.34 8.61867 659.809 8.352C660.289 8.08533 660.833 7.952 661.441 7.952C662.07 7.952 662.588 8.07467 662.993 8.32C663.398 8.55467 663.702 8.928 663.905 9.44C664.108 9.94133 664.209 10.576 664.209 11.344V16H661.361V11.456C661.361 11.136 661.324 10.88 661.249 10.688C661.174 10.4853 661.062 10.3413 660.913 10.256C660.774 10.1707 660.598 10.128 660.385 10.128C660.097 10.128 659.846 10.192 659.633 10.32C659.42 10.4373 659.254 10.608 659.137 10.832C659.03 11.056 658.977 11.3227 658.977 11.632V16H656.129ZM674.426 16.176C673.541 16.176 672.767 16.0107 672.106 15.68C671.455 15.3493 670.949 14.8747 670.586 14.256C670.223 13.6267 670.042 12.8907 670.042 12.048C670.042 11.1947 670.223 10.464 670.586 9.856C670.949 9.23733 671.455 8.768 672.106 8.448C672.767 8.11733 673.541 7.952 674.426 7.952C674.949 7.952 675.471 8.02133 675.994 8.16C676.517 8.29867 676.938 8.50133 677.258 8.768L676.506 10.72C676.261 10.528 675.973 10.3787 675.642 10.272C675.322 10.1547 675.018 10.096 674.73 10.096C674.165 10.096 673.727 10.2667 673.418 10.608C673.109 10.9387 672.954 11.4187 672.954 12.048C672.954 12.6667 673.109 13.152 673.418 13.504C673.727 13.856 674.165 14.032 674.73 14.032C675.018 14.032 675.322 13.9787 675.642 13.872C675.973 13.7547 676.261 13.6 676.506 13.408L677.258 15.36C676.938 15.6053 676.517 15.8027 675.994 15.952C675.471 16.1013 674.949 16.176 674.426 16.176ZM681.988 16.176C681.113 16.176 680.351 16.0107 679.7 15.68C679.049 15.3493 678.543 14.8747 678.18 14.256C677.817 13.6373 677.636 12.9067 677.636 12.064C677.636 11.2107 677.817 10.48 678.18 9.872C678.543 9.25333 679.049 8.77867 679.7 8.448C680.351 8.11733 681.113 7.952 681.988 7.952C682.863 7.952 683.625 8.11733 684.276 8.448C684.927 8.77867 685.428 9.25333 685.78 9.872C686.143 10.48 686.324 11.2107 686.324 12.064C686.324 12.9067 686.143 13.6373 685.78 14.256C685.428 14.8747 684.927 15.3493 684.276 15.68C683.625 16.0107 682.863 16.176 681.988 16.176ZM681.988 14.08C682.415 14.08 682.767 13.92 683.044 13.6C683.321 13.28 683.46 12.768 683.46 12.064C683.46 11.3493 683.321 10.8373 683.044 10.528C682.767 10.208 682.415 10.048 681.988 10.048C681.551 10.048 681.193 10.208 680.916 10.528C680.639 10.8373 680.5 11.3493 680.5 12.064C680.5 12.768 680.639 13.28 680.916 13.6C681.193 13.92 681.551 14.08 681.988 14.08ZM687.629 16V8.128H690.397V9.504H690.221C690.477 9.00267 690.84 8.61867 691.309 8.352C691.789 8.08533 692.333 7.952 692.941 7.952C693.57 7.952 694.088 8.07467 694.493 8.32C694.898 8.55467 695.202 8.928 695.405 9.44C695.608 9.94133 695.709 10.576 695.709 11.344V16H692.861V11.456C692.861 11.136 692.824 10.88 692.749 10.688C692.674 10.4853 692.562 10.3413 692.413 10.256C692.274 10.1707 692.098 10.128 691.885 10.128C691.597 10.128 691.346 10.192 691.133 10.32C690.92 10.4373 690.754 10.608 690.637 10.832C690.53 11.056 690.477 11.3227 690.477 11.632V16H687.629ZM701.46 16.176C700.265 16.176 699.38 15.8987 698.804 15.344C698.228 14.7893 697.94 13.952 697.94 12.832V10.224H696.468V8.128H697.94V5.84H700.788V8.128H703.028V10.224H700.788V12.736C700.788 13.1307 700.879 13.424 701.06 13.616C701.252 13.7973 701.551 13.888 701.956 13.888C702.084 13.888 702.223 13.872 702.372 13.84C702.532 13.808 702.708 13.7707 702.9 13.728L703.284 15.776C703.039 15.904 702.751 16 702.42 16.064C702.1 16.1387 701.78 16.176 701.46 16.176ZM704.145 16V8.128H706.913V10.064H706.753C706.859 9.424 707.126 8.928 707.553 8.576C707.99 8.21333 708.561 8.01067 709.265 7.968L710.049 7.904L710.209 10.304L708.657 10.448C708.091 10.5013 707.681 10.6613 707.424 10.928C707.169 11.184 707.041 11.568 707.041 12.08V16H704.145ZM713.74 16.176C713.132 16.176 712.593 16.064 712.124 15.84C711.665 15.616 711.303 15.312 711.036 14.928C710.78 14.5333 710.652 14.0853 710.652 13.584C710.652 13.008 710.801 12.5547 711.1 12.224C711.399 11.8933 711.879 11.6587 712.54 11.52C713.201 11.3707 714.081 11.296 715.18 11.296H716.06V12.64H715.18C714.871 12.64 714.599 12.656 714.364 12.688C714.14 12.72 713.953 12.7733 713.804 12.848C713.655 12.912 713.543 12.9973 713.468 13.104C713.393 13.2107 713.356 13.3333 713.356 13.472C713.356 13.7173 713.441 13.92 713.612 14.08C713.793 14.24 714.049 14.32 714.38 14.32C714.647 14.32 714.881 14.2613 715.084 14.144C715.297 14.0267 715.468 13.8667 715.596 13.664C715.724 13.4507 715.788 13.2053 715.788 12.928V11.072C715.788 10.688 715.687 10.416 715.484 10.256C715.292 10.096 714.956 10.016 714.476 10.016C714.071 10.016 713.623 10.08 713.132 10.208C712.641 10.336 712.161 10.5333 711.692 10.8L710.972 8.928C711.249 8.736 711.591 8.56533 711.996 8.416C712.412 8.26667 712.849 8.15467 713.308 8.08C713.777 7.99467 714.209 7.952 714.604 7.952C715.479 7.952 716.199 8.08 716.764 8.336C717.34 8.58133 717.767 8.96533 718.044 9.488C718.332 10 718.476 10.6613 718.476 11.472V16H715.82V14.512H715.916C715.863 14.8533 715.74 15.1467 715.548 15.392C715.356 15.6373 715.105 15.8293 714.796 15.968C714.487 16.1067 714.135 16.176 713.74 16.176ZM724.226 16.176C723.031 16.176 722.146 15.8987 721.57 15.344C720.994 14.7893 720.706 13.952 720.706 12.832V10.224H719.234V8.128H720.706V5.84H723.554V8.128H725.794V10.224H723.554V12.736C723.554 13.1307 723.644 13.424 723.826 13.616C724.018 13.7973 724.316 13.888 724.722 13.888C724.85 13.888 724.988 13.872 725.138 13.84C725.298 13.808 725.474 13.7707 725.666 13.728L726.05 15.776C725.804 15.904 725.516 16 725.186 16.064C724.866 16.1387 724.546 16.176 724.226 16.176ZM730.816 16.176C729.941 16.176 729.179 16.0107 728.528 15.68C727.877 15.3493 727.371 14.8747 727.008 14.256C726.645 13.6373 726.464 12.9067 726.464 12.064C726.464 11.2107 726.645 10.48 727.008 9.872C727.371 9.25333 727.877 8.77867 728.528 8.448C729.179 8.11733 729.941 7.952 730.816 7.952C731.691 7.952 732.453 8.11733 733.104 8.448C733.755 8.77867 734.256 9.25333 734.608 9.872C734.971 10.48 735.152 11.2107 735.152 12.064C735.152 12.9067 734.971 13.6373 734.608 14.256C734.256 14.8747 733.755 15.3493 733.104 15.68C732.453 16.0107 731.691 16.176 730.816 16.176ZM730.816 14.08C731.243 14.08 731.595 13.92 731.872 13.6C732.149 13.28 732.288 12.768 732.288 12.064C732.288 11.3493 732.149 10.8373 731.872 10.528C731.595 10.208 731.243 10.048 730.816 10.048C730.379 10.048 730.021 10.208 729.744 10.528C729.467 10.8373 729.328 11.3493 729.328 12.064C729.328 12.768 729.467 13.28 729.744 13.6C730.021 13.92 730.379 14.08 730.816 14.08Z" fill="#ED7A45"/>
<path d="M667.685 32V23.54H673.061V24.548H668.933V27.248H672.809V28.256H668.933V32H667.685ZM676.519 32.108C675.927 32.108 675.415 31.984 674.983 31.736C674.559 31.488 674.227 31.136 673.987 30.68C673.747 30.224 673.627 29.688 673.627 29.072C673.627 28.448 673.747 27.912 673.987 27.464C674.227 27.008 674.559 26.656 674.983 26.408C675.415 26.16 675.927 26.036 676.519 26.036C677.103 26.036 677.607 26.16 678.031 26.408C678.463 26.656 678.799 27.008 679.039 27.464C679.279 27.92 679.399 28.456 679.399 29.072C679.399 29.688 679.279 30.224 679.039 30.68C678.799 31.136 678.463 31.488 678.031 31.736C677.607 31.984 677.103 32.108 676.519 32.108ZM676.507 31.172C677.011 31.172 677.415 30.992 677.719 30.632C678.023 30.272 678.175 29.752 678.175 29.072C678.175 28.384 678.023 27.864 677.719 27.512C677.415 27.16 677.011 26.984 676.507 26.984C676.011 26.984 675.611 27.16 675.307 27.512C675.003 27.864 674.851 28.384 674.851 29.072C674.851 29.752 675.003 30.272 675.307 30.632C675.611 30.992 676.011 31.172 676.507 31.172ZM680.76 32V26.144H681.936V27.548H681.816C681.944 27.068 682.172 26.704 682.5 26.456C682.836 26.208 683.28 26.064 683.832 26.024L684.228 26L684.312 27.032L683.58 27.104C683.06 27.152 682.664 27.316 682.392 27.596C682.12 27.876 681.984 28.26 681.984 28.748V32H680.76ZM685.044 32V31.208L688.476 26.78V27.08H685.044V26.144H689.568V26.948L686.112 31.4V31.076H689.7V32H685.044ZM693.312 32.108C692.72 32.108 692.208 31.984 691.776 31.736C691.352 31.488 691.02 31.136 690.78 30.68C690.54 30.224 690.42 29.688 690.42 29.072C690.42 28.448 690.54 27.912 690.78 27.464C691.02 27.008 691.352 26.656 691.776 26.408C692.208 26.16 692.72 26.036 693.312 26.036C693.896 26.036 694.4 26.16 694.824 26.408C695.256 26.656 695.592 27.008 695.832 27.464C696.072 27.92 696.192 28.456 696.192 29.072C696.192 29.688 696.072 30.224 695.832 30.68C695.592 31.136 695.256 31.488 694.824 31.736C694.4 31.984 693.896 32.108 693.312 32.108ZM693.3 31.172C693.804 31.172 694.208 30.992 694.512 30.632C694.816 30.272 694.968 29.752 694.968 29.072C694.968 28.384 694.816 27.864 694.512 27.512C694.208 27.16 693.804 26.984 693.3 26.984C692.804 26.984 692.404 27.16 692.1 27.512C691.796 27.864 691.644 28.384 691.644 29.072C691.644 29.752 691.796 30.272 692.1 30.632C692.404 30.992 692.804 31.172 693.3 31.172ZM699.605 32.108C699.293 32.108 698.989 32.08 698.693 32.024C698.397 31.968 698.125 31.888 697.877 31.784C697.629 31.68 697.409 31.552 697.217 31.4L697.565 30.584C697.765 30.72 697.977 30.84 698.201 30.944C698.425 31.04 698.657 31.112 698.897 31.16C699.145 31.208 699.385 31.232 699.617 31.232C700.041 31.232 700.361 31.156 700.577 31.004C700.793 30.852 700.901 30.648 700.901 30.392C700.901 30.184 700.829 30.024 700.685 29.912C700.541 29.792 700.325 29.7 700.037 29.636L698.897 29.408C698.401 29.304 698.025 29.12 697.769 28.856C697.513 28.592 697.385 28.256 697.385 27.848C697.385 27.48 697.485 27.16 697.685 26.888C697.885 26.616 698.165 26.408 698.525 26.264C698.885 26.112 699.301 26.036 699.773 26.036C700.045 26.036 700.309 26.064 700.565 26.12C700.821 26.176 701.061 26.256 701.285 26.36C701.517 26.464 701.713 26.596 701.873 26.756L701.525 27.572C701.373 27.436 701.197 27.32 700.997 27.224C700.805 27.128 700.605 27.056 700.397 27.008C700.189 26.952 699.981 26.924 699.773 26.924C699.349 26.924 699.029 27.004 698.813 27.164C698.605 27.316 698.501 27.524 698.501 27.788C698.501 27.988 698.565 28.152 698.693 28.28C698.821 28.408 699.021 28.5 699.293 28.556L700.433 28.784C700.953 28.888 701.345 29.064 701.609 29.312C701.881 29.56 702.017 29.896 702.017 30.32C702.017 30.688 701.917 31.008 701.717 31.28C701.517 31.552 701.233 31.76 700.865 31.904C700.505 32.04 700.085 32.108 699.605 32.108ZM705.91 32.108C705.318 32.108 704.806 31.984 704.374 31.736C703.95 31.488 703.618 31.136 703.378 30.68C703.138 30.224 703.018 29.688 703.018 29.072C703.018 28.448 703.138 27.912 703.378 27.464C703.618 27.008 703.95 26.656 704.374 26.408C704.806 26.16 705.318 26.036 705.91 26.036C706.494 26.036 706.998 26.16 707.422 26.408C707.854 26.656 708.19 27.008 708.43 27.464C708.67 27.92 708.79 28.456 708.79 29.072C708.79 29.688 708.67 30.224 708.43 30.68C708.19 31.136 707.854 31.488 707.422 31.736C706.998 31.984 706.494 32.108 705.91 32.108ZM705.898 31.172C706.402 31.172 706.806 30.992 707.11 30.632C707.414 30.272 707.566 29.752 707.566 29.072C707.566 28.384 707.414 27.864 707.11 27.512C706.806 27.16 706.402 26.984 705.898 26.984C705.402 26.984 705.002 27.16 704.698 27.512C704.394 27.864 704.242 28.384 704.242 29.072C704.242 29.752 704.394 30.272 704.698 30.632C705.002 30.992 705.402 31.172 705.898 31.172Z" fill="#282828"/>
</svg>
